<?xml version="1.0" encoding="iso-8859-1"?>
<!-- Generator: Adobe Illustrator 23.0.5, SVG Export Plug-In . SVG Version: 6.00 Build 0)  -->
<svg version="1.1" id="Capa_1" xmlns="http://www.w3.org/2000/svg" xmlns:xlink="http://www.w3.org/1999/xlink" x="0px" y="0px"
	 viewBox="0 0 425.197 425.197" style="enable-background:new 0 0 425.197 425.197;" xml:space="preserve">
<g>
	<g>
		<path style="fill:#21518B;" d="M42,192.67c1.219-1.956,0.677-4.207,0.923-6.297c1.735-14.535,4.85-28.7,10.022-42.462
			c6.924-18.431,16.735-35.081,29.288-50.321c7.44-9.035,16.015-16.726,24.852-24.266c12.951-11.058,27.891-18.54,43.381-25.366
			c25.157-11.075,51.575-13.493,78.611-12.587c17.496,0.588,34.637,3.51,50.94,9.707c16.878,6.415,33.139,14.358,47.266,25.761
			c8.515,6.868,17.022,13.905,24.065,22.369c8.583,10.311,16.675,20.95,23.032,32.856c7.009,13.124,12.35,26.844,15.888,41.211
			c2.683,10.89,4.393,22.008,4.596,33.268c0.237,12.872,0.389,25.736-1.541,38.532c-2.59,17.129-7.449,33.536-14.915,49.246
			c-4.283,9.026-9.624,17.331-15.118,25.635c-5.384,8.136-12.062,15.097-18.673,22.176c-10.014,10.722-21.991,18.85-34.299,26.701
			c-14.144,9.035-29.525,14.938-45.683,18.892c-28.957,7.087-58.126,7.087-87.262,1.184c-16.379-3.317-32.047-8.984-46.428-17.44
			c-12.13-7.137-23.997-14.862-34.028-24.846c-7.644-7.599-15.236-15.307-21.5-24.124c-10.615-14.954-19.223-30.967-24.852-48.423
			c-4.3-13.326-7.043-26.978-8.016-40.959c-0.034-0.512,0.135-1.125-0.542-1.402C42,212.024,42,202.343,42,192.67z M357.738,305.261
			c4.444-6.415,8.541-12.931,12.054-19.866c9.226-18.196,14.991-37.315,17.005-57.584c3.496-35.19-1.253-68.886-17.877-100.558
			c-7.347-13.997-16.599-26.668-27.484-38.045C330.6,77.888,318.2,68.358,304.589,60.423c-15.473-9.018-32.174-15.391-49.603-18.716
			c-27.188-5.189-54.503-5.391-81.556,2.309c-19.646,5.592-38.226,13.09-54.588,25.543c-9.48,7.213-18.639,14.635-26.604,23.586
			c-13.078,14.694-23.464,30.891-30.82,49.087c-6.205,15.349-10.166,31.185-11.334,47.668c-1.845,25.979-0.102,51.547,8.913,76.325
			c6.348,17.457,15.541,33.301,26.9,47.962c6.23,8.036,13.653,15.013,21.153,21.815c11.867,10.756,25.707,18.834,40.139,25.551
			c19.756,9.194,40.833,13.594,62.706,14.257c29.897,0.907,58.744-2.956,85.585-17.154c13.399-7.087,26.35-14.694,37.329-25.308
			c4.935-4.778,9.98-9.438,14.585-14.543c3.521-3.904,6.704-8.044,9.565-12.754c-5.654,1.033-11.376,0.756-16.15,3.896
			c-3.073,2.024-6.526,3.165-9.726,4.87c-1.422,0.756-2.429,1.906-3.132,3.359c-1.405,2.905-3.741,4.408-7.009,4.467
			c-3.123,0.059-6.255,0.244-9.379,0.16c-6.975-0.193-12.824,2.721-18.402,6.398c-1.016,0.672-2.709,1.444-2.455,2.695
			c0.313,1.528,2.277,1.1,3.53,1.427c1.346,0.344,3.318,0.47,3.538,1.637c0.288,1.528-1.676,2.158-2.92,2.804
			c-7.415,3.896-15.338,4.039-23.379,2.813c-4.672-0.714-4.723-0.814-3.504-5.315c0.432-1.595,0.254-2.393-1.6-2.443
			c-2.023-0.059-4.038-0.277-6.052-0.428c-6.882-0.512-13.763-1.041-20.645-1.495c-1.278-0.084-1.524-0.512-1.676-1.78
			c-0.313-2.729,1.795-3.266,3.386-4.366c12.138-8.355,25.419-12.922,40.368-12.276c5.51,0.244,11.046,0.252,16.565,0.118
			c3.843-0.092,7.407,0.512,10.995,1.982c6.518,2.662,12.57,0.747,17.911-3.107c5.527-3.988,11.199-7.742,17.936-8.993
			C349.409,301.675,354.183,300.869,357.738,305.261z M295.057,321.726c-2.556-0.823-4.926-0.915-7.288-0.655
			c-4.021,0.445-7.838-0.159-11.529-1.797c-2.023-0.898-4.148-1.637-6.391-1.318c-5.925,0.831-11.63,2.494-17.073,4.971
			c-0.939,0.428-2.328,0.814-2.074,2.192c0.237,1.276,1.651,1.402,2.666,1.57c3.191,0.529,6.399,0.235,9.607-0.059
			c4.588-0.42,9.557-1.226,13.476,1.276c5.028,3.216,8.845,2.41,12.951-1.167C291.223,325.152,293.711,324.321,295.057,321.726z"/>
		<path style="fill:#21518B;" d="M195.294,312.104c-9.446-0.386-18.707-2.301-28.035-3.594c-17.657-2.452-35.128-6.029-52.641-9.287
			c-3.724-0.697-7.517-0.445-11.292-0.386c-5.604,0.084-11.232,0.621-16.794-0.437c-1.261-0.244-3.166,0.151-3.2-2.124
			c-0.025-1.906-0.262-3.585,2.319-4.433c5.714-1.864,11.165-4.4,16.599-6.978c1.354-0.638,1.735-1.385,1.6-2.721
			c-0.203-2.032-0.652-4.014-1.828-5.676c-7.931-11.168-8.744-23.435-5.883-36.324c2.116-9.555,7.153-17.272,14.737-23.393
			c1.473-1.192,2.167-2.469,2.209-4.383c0.212-11.235-0.465-22.453-0.965-33.662c-0.102-2.385-0.99-4.652-1.964-6.81
			c-2.81-6.222-4.309-12.771-4.977-19.514c-0.559-5.701,0.957-8.162,6.374-10.219c2.04-0.772,3.31-2.284,4.317-3.946
			c1.811-2.998,0.77-6.768-2.26-7.448c-7.914-1.763-10.513-7.834-12.612-14.451c-0.22-0.689-0.322-1.419-0.483-2.133
			c-1.947-8.287,1.608-13.703,10.09-15.198c10.767-1.906,20.628,1.075,29.931,6.062c6.035,3.233,11.656,7.154,16.794,11.764
			c2.218,1.99,5.13,2.846,8.143,2.964c9.04,0.361,14.974,5.777,20.298,12.192c0.449,0.546,0.948,1.293,0.94,1.94
			c-0.042,4.475,3.479,6.541,6.247,8.984c4.546,4.005,9.548,7.389,14.762,10.521c5.485,3.291,7.864,8.531,8.101,14.694
			c0.195,4.937-2.717,8.976-7.711,10.874c-6.924,2.628-14.153,3.014-21.466,2.427c-2.937-0.235-5.866-0.479-8.795-0.789
			c-1.346-0.143-1.964,0.269-2.209,1.679c-0.533,3.082-0.838,6.155-0.559,9.261c0.288,3.166,1.515,4.291,4.689,4.509
			c1.38,0.092,2.759,0.143,4.131,0.319c8.998,1.167,16.387-2.443,23.438-7.431c2.074-1.469,4.656-2.401,7.296-2.133
			c6.755,0.689,13.399-0.47,20.095-0.89c5.798-0.37,11.207,1.352,16.464,3.552c0.796,0.336,1.422,0.84,2.074-0.109
			c1.744-2.527,4.452-2.93,7.229-3.291c5.832-0.756,11.673-1.486,17.234-3.552c4.715-1.755,6.679-5.433,5.68-10.37
			c-0.246-1.192-0.965-0.89-1.617-0.848c-5.942,0.437-10.911-1.965-15.651-5.139c-0.821-0.546-1.304-1.159-1.49-2.141
			c-0.296-1.612-0.821-3.182-1.109-4.794c-0.347-1.889-1.397-3.107-3.166-3.795c-10.869-4.198-15.913-13.2-19.435-23.368
			c-1.219-3.51,0.313-6.826,1.507-10.076c0.728-1.998,1.168-4.005,1.092-6.146c-0.059-1.797-0.821-2.553-2.692-2.586
			c-4.689-0.101-9.396,0.118-14.06-0.546c-1.27-0.176-2.548-0.353-3.801-0.621c-2.048-0.428-3.995-1.058-4.139-3.627
			c-0.144-2.527,0.449-4.585,2.98-5.911c9.345-4.912,19.333-7.843,29.592-10.11c3.597-0.789,6.628-2.905,9.328-5.298
			c8.118-7.171,17.378-12.1,28.238-13.09c16.142-1.486,30.71,2.401,40.461,16.096c9.294,13.04,10.64,29.12-2.573,43.259
			c-2.531,2.712-4.486,5.416-4.486,9.53c-0.009,4.845-2.666,9.018-5.299,13.006c-1.27,1.923-2.074,3.384,0.669,4.937
			c2.396,1.36,2.345,4.098,1.972,6.432c-0.381,2.401,0.677,3.241,2.717,3.753c2.04,0.521,4.038,1.192,6.052,1.83
			c8.211,2.586,12.485,8.758,13.746,16.634c2.649,16.617-1.092,32.042-10.378,46.114c-1.82,2.754-2.565,5.836-2.996,8.984
			c-0.973,7.045-1.803,14.115-2.658,21.176c-0.119,0.991-0.169,2.007-0.144,3.006c0.152,6.701,2.226,8.623,8.905,8.271
			c0.457-0.025,0.923-0.059,1.38-0.059c3.09,0.008,6.56-0.663,8.219,2.905c1.879,4.056,1.778,8.162-0.855,11.957
			c-2.633,3.795-6.636,5.072-10.987,5.366c-5.849,0.403-11.596-0.386-16.997-2.687c-2.624-1.117-5.053-1.243-7.686-0.244
			c-7.11,2.721-14.254,5.332-21.365,8.036c-4.444,1.688-8.854,3.132-13.586,0.991c-3.699-1.671-4.308-2.93-3.276-6.818
			c1.134-4.274,4.622-6.172,8.151-7.994c4.689-2.418,9.396-4.803,14.161-7.07c2.903-1.377,4.512-3.426,4.969-6.659
			c1.117-7.943,2.446-15.861,3.674-23.788c0.127-0.814,0.135-1.637,0.279-2.443c0.372-1.982-0.228-3.115-2.336-3.812
			c-5.51-1.839-9.506-5.424-11.343-11.016c-0.779-2.385-2.269-3.3-4.689-3.249c-6.822,0.151-8.854-2.737-8.837-9.623
			c0.009-2.108,0.415-4.165,0.77-6.239c0.246-1.419,0.525-3.023-1.041-3.963c-1.6-0.957-3.403-0.588-5.121-0.445
			c-0.711,0.059-0.618,0.789-0.652,1.31c-0.068,0.907-0.161,1.822-0.144,2.737c0.203,9.144-4.867,12.368-12.595,13.829
			c-8.575,1.62-17.056,0.722-25.131-2.754c-5.468-2.36-10.919-1.906-16.447-0.336c-1.549,0.437-1.549,1.243-0.872,2.427
			c1.016,1.772,2.412,3.249,3.919,4.559c12.858,11.193,13.619,25.341,6.103,38.994c-2.819,5.113-6.095,9.925-9.514,14.694
			c-2.785,3.879-2.886,4.165,1.786,5.869c3.352,1.218,6.865,2.015,10.293,3.031c1.321,0.386,2.641,0.789,3.919,1.293
			c0.83,0.327,2.048,0.663,2.032,1.621c-0.017,0.898-1.185,1.293-2.032,1.587c-7.39,2.527-15.059,4.014-22.626,5.894
			c-0.356,0.092-0.72,0.185-1.084,0.218c-2.895,0.21-4.672,1.218-3.682,4.585c0.533,1.831-0.525,2.427-2.26,2.326
			C198.062,312.037,196.674,312.104,195.294,312.104z M171.441,255.981c0.042-4.014-0.423-7.968-1.295-11.915
			c-3.733-16.902-14.229-27.239-30.964-31.403c-6.882-1.713-13.518-0.563-20.036,2.242c-5.722,2.46-10.488,5.936-14.212,10.865
			c-5.485,7.255-6.958,15.76-7.55,24.459c-0.398,5.76,0.406,11.587,2.04,17.028c1.414,4.694,4.292,9.001,6.797,13.317
			c4.385,7.532,10.632,12.746,19.596,13.922c9.26,1.209,18.123-0.571,26.621-4.207c1.913-0.823,3.818-1.923,5.358-3.3
			C167.039,278.71,171.576,268.349,171.441,255.981z M285.374,166.909c3.53-0.109,6.611-1.411,9.734-3.04
			c6.137-3.191,12.02-6.659,16.887-11.638c3.784-3.879,6.679-8.187,7.144-13.779c0.178-2.175-0.203-3.812-2.734-4.14
			c-4.038-0.529-6.67-3.199-9.235-5.987c-2.785-3.031-5.29-6.306-8.482-8.968c-2.099-1.755-4.385-3.283-6.916-4.215
			c-4.258-1.562-7.449,1.075-10.276,3.543c-4.529,3.946-9.557,5.836-15.6,5.668c-4.224-0.118-8.448,0.411-12.46,1.94
			c-2.675,1.016-4.876,2.595-5.663,5.508c-0.499,1.847-0.618,3.485,2.192,3.325c1.21-0.067,2.074,0.663,2.396,1.881
			c0.212,0.84-0.178,1.587-0.897,1.797c-2.827,0.848-1.363,2.351-0.601,3.661c0.55,0.94,1.321,1.746,1.955,2.637
			c4.926,6.86,15.008,9.001,22.397,4.794c2.15-1.226,4.368-2.317,6.577-3.434c0.83-0.42,2.074-0.873,2.565-0.168
			c0.669,0.966-0.44,1.78-1.151,2.46c-2.302,2.2-5.367,3.115-8.058,4.66c-2.074,1.192-4.055,2.494-5.18,4.736
			c-0.618,1.226-0.593,2.267,0.601,3.115C275.005,164.432,279.703,166.909,285.374,166.909z M338.252,207.171
			c-0.94,0.588-1.388,0.873-1.837,1.15c-2.793,1.746-4.859,4.442-7.559,6.197c-6.882,4.475-14.348,7.733-22.584,8.934
			c-4.275,0.621-8.558,1.176-12.815,1.889c-4.224,0.705-4.757,1.856-2.886,5.743c0.237,0.487,0.483,1.008,0.846,1.402
			c3.589,3.837,6.425,8.464,11.444,10.823c1.49,0.697,2.142,1.948,2.074,3.552c-0.068,1.453-0.119,2.922-0.33,4.358
			c-1.185,8.111-2.599,16.205-3.555,24.342c-0.432,3.661-1.879,6.037-5.223,7.641c-5.248,2.519-10.352,5.323-15.533,7.968
			c-2.142,1.092-4.122,2.385-5.773,4.14c-0.787,0.84-1.321,1.772-0.906,2.964c0.423,1.209,1.464,1.595,2.59,1.73
			c2.666,0.319,5.324,0.26,7.965-0.277c7.813-1.587,14.957-4.895,22.025-8.413c1.109-0.554,1.321-1.327,1.405-2.393
			c0.745-9.639,1.473-19.279,2.294-28.91c0.474-5.542,0.999-11.084,2.082-16.55c0.288-1.453,1.058-1.864,2.48-1.914
			c1.795-0.067,1.549,1.167,1.676,2.183c0.813,6.784-0.33,13.477-1.092,20.169c-0.846,7.448-1.795,14.862-0.305,22.327
			c0.169,0.84,0.212,1.612,1.185,1.948c6.281,2.15,12.629,4.03,19.375,3.476c2.108-0.176,4.156-0.772,5.443-2.779
			c1.354-2.108,1.422-4.425,0.593-6.566c-0.702-1.814-2.819-1.243-4.359-1.402c-2.649-0.26-5.333-0.227-7.982-0.47
			c-3.31-0.311-5.333-2.284-6.221-5.366c-0.398-1.394-0.652-2.855-0.728-4.299c-0.508-8.875,0.356-17.675,1.701-26.441
			c0.389-2.561,1.295-4.979,2.793-7.036c2.159-2.964,4.156-6.012,5.79-9.278C335.518,221.613,337.778,214.938,338.252,207.171z
			 M160.462,134.078c-7.965-0.008-14.111,0.898-17.581,2.595c-3.64,1.772-4.859,4.61-3.834,8.531
			c0.855,3.275,3.064,5.533,5.485,7.666c6.679,5.878,14.949,9.077,22.812,12.83c6.01,2.872,12.511,4.727,19.138,5.878
			c6.475,1.125,12.798,1.839,19.003-1.73c2.903-1.671,3.293-3.594,2.683-6.23c-0.55-2.418-1.634-4.618-3.487-6.398
			c-2.328-2.234-4.986-4.005-7.711-5.71c-3.276-2.049-6.577-4.156-8.405-7.691c-2.98-5.76-8.278-7.607-14.111-8.581
			C169.841,134.465,165.168,134.053,160.462,134.078z M146.191,123.003c-2.641,0-5.146-0.235-7.601,0.042
			c-8.989,1.024-10.775,3.468-11.647,10.387c-0.313,2.511-1.337,4.568-3.936,5.441c-1.549,0.521-2.252,1.688-2.802,3.098
			c-0.702,1.822-0.99,3.711-0.88,5.626c0.44,8.01,0.973,16.012,1.414,24.014c0.212,3.846,0.847,7.607,1.947,11.293
			c0.796,2.679,2.116,4.962,4.816,6.323c2.057,1.033,3.851,0.319,4.08-1.923c0.152-1.427-0.22-2.737-1.287-3.745
			c-0.965-0.915-1.617-2.007-1.828-3.291c-1.177-7.347-1.126-14.703,0.102-22.041c0.398-2.393,1.938-3.367,4.292-3.317
			c1.481,0.034,2.886-0.168,4.275-0.814c1.693-0.789,1.778-1.746,0.914-3.224c-1.109-1.906-2.92-3.014-4.596-4.257
			c-2.861-2.108-3.25-4.677-0.847-8.036c0.576-0.806,1.464-1.411,2.04-2.217c5.341-7.557,12.9-9.396,21.593-8.254
			c2.633,0.344,5.248,0.873,7.872,1.327c2.895,0.504,5.781,1.259,8.693,0.151c1.261-0.487,2.599-0.781,2.438-2.729
			c-0.152-1.78-0.973-2.553-2.616-2.964c-3.674-0.915-7.373-1.394-11.165-1.402C156.306,122.483,151.193,123.44,146.191,123.003z
			 M322.339,107.318c0.914,0,1.837,0.017,2.759,0c3.987-0.092,5.096-2.234,3.022-5.743c-0.576-0.966-1.363-1.688-2.302-2.301
			c-1.71-1.108-3.64-1.696-5.544-2.36c-6.467-2.234-12.985-3.837-19.24-7.221c-8.346-4.517-18.19-5.407-27.882-4.106
			c-2.252,0.302-4.579,0.487-6.67,1.528c-2.099,1.05-2.903,2.998-2.522,5.021c0.347,1.814,2.362,1.201,3.682,1.285
			c2.751,0.16,5.519-0.034,8.228,0.621c1.439,0.353,3.081,0.672,3.521,2.267c0.948,3.451,3.724,4.215,6.662,4.845
			c1.608,0.344,3.25,0.571,4.867,0.915C301.296,104.287,311.606,107.058,322.339,107.318z M337.651,196.129
			c0.042-2.972-0.347-5.323-1.067-7.574c-1.329-4.148-3.327-7.943-7.339-10.202c-2.785-1.57-3.454-1.343-4.19,1.663
			c-0.804,3.266-1.464,6.591-1.871,9.925c-1.033,8.43-5.079,11.478-13.518,9.883c-2.616-0.495-5.18-1.209-7.804-1.629
			c-1.913-0.302-3.801,0.143-4.664,2.091c-0.846,1.923,0.584,3.174,1.947,4.072c3.149,2.074,5.553,4.912,7.432,7.985
			c2.514,4.106,5.968,4.307,9.971,3.552c5.595-1.058,9.734-4.794,14.229-7.809C335.188,205.131,338.218,201.268,337.651,196.129z
			 M139.326,119.838c2.412-0.109,4.537,0.185,6.619-0.327c1.456-0.353,2.903-0.731,3.234-2.502c0.347-1.83-0.694-2.838-2.133-3.72
			c-5.79-3.569-11.85-6.608-18.3-8.758c-5.968-1.99-12.096-3.174-18.411-1.654c-4.63,1.117-6.932,5.114-6.018,9.774
			c1.346,6.885,5.984,11.042,11.664,14.4c3.115,1.839,4.706,1.461,6.645-1.528c0.593-0.915,1.033-1.931,1.583-2.872
			c1.397-2.427,3.386-3.711,6.34-3.417C133.561,119.527,136.6,119.653,139.326,119.838z M172.084,220.681
			c1.007,0,2.023-0.059,3.03,0.008c2.057,0.151,2.108-0.84,1.38-2.284c-0.702-1.385-1.541-2.704-2.159-4.114
			c-0.762-1.738-0.483-2.914,1.803-3.166c3.623-0.395,6.941,0.47,10.056,2.124c6.018,3.191,12.223,5.735,19.189,5.651
			c1.761-0.017,4.131,0.336,4.986-1.377c0.957-1.931-0.271-4.047-1.278-5.894c-0.254-0.47-0.652-0.882-1.016-1.285
			c-4.96-5.374-10.894-9.32-18.114-10.79c-6.035-1.226-11.91-1.008-16.193,4.593c-1.803,2.351-4.376,3.837-7.161,4.912
			c-1.541,0.596-3.039,1.268-4.198,2.519c-2.709,2.905-2.438,5.248,0.931,7.297C166.015,220.538,169.028,220.774,172.084,220.681z
			 M206.738,194.719c-0.838,0-1.295-0.017-1.761,0c-2.192,0.084-5.231-0.067-5.841,1.973c-0.702,2.334,1.735,4.106,3.792,5.458
			c5.976,3.93,10.716,8.825,12.553,15.97c0.533,2.057,1.896,3.317,4.055,3.56c4.452,0.495,8.812,0.05,12.985-1.62
			c1.456-0.588,2.743-1.453,3.64-2.821c2.709-4.131,1.185-9.866-3.53-12.402c-4.19-2.25-8.558-4.165-12.096-7.481
			c-1.363-1.276-3.267-1.663-5.104-1.873C212.418,195.155,209.387,194.946,206.738,194.719z M245.37,203.619
			c-2.565-0.118-4.647,0.395-5.578,2.855c-0.872,2.317-0.593,4.778,0.085,7.011c0.432,1.402,2.429,1.385,3.699,2.04
			c0.567,0.294,1.21,0.445,1.769,0.756c0.762,0.42,2.04,0.512,1.989,1.587c-0.051,1.058-1.261,1.159-2.108,1.436
			c-1.498,0.495-4.021,0.445-3.911,2.166c0.119,1.822,2.59,2.284,4.334,2.846c0.432,0.143,0.906,0.134,1.363,0.176
			c7.787,0.739,13.162-2.947,15.947-10.949c0.813-2.343,1.608-4.794,3.792-6.197c5.206-3.333,10.767-5.542,17.158-4.282
			c3.674,0.722,5.138-0.966,3.978-4.61c-1.456-4.585-6.56-7.07-11.876-5.894c-2.091,0.462-3.792,1.478-3.978,3.602
			c-0.305,3.443-2.463,4.534-5.316,5.785c-5.138,2.25-10.259,3.308-15.803,2.301C249.035,203.922,247.097,203.812,245.37,203.619z
			 M156.755,172.98c-3.961-0.042-7.559-0.193-11.046,0.882c-2.861,0.873-3.716,3.401-1.634,5.542
			c1.625,1.671,2.379,3.577,3.013,5.701c2.167,7.238,6.179,12.545,14.441,13.401c4.207,0.437,6.941-1.092,8.177-5.156
			c1.549-5.088,1.456-10.252,0.212-15.399c-0.626-2.595-2.489-3.913-5.02-4.484C162.07,172.837,159.218,173.081,156.755,172.98z
			 M254.19,107.604c6.264,0.101,11.402,0.118,16.481-0.94c2.116-0.437,3.868-1.125,3.995-3.686c0.127-2.553-1.075-4.341-3.437-4.971
			c-7-1.881-14.195-2.124-21.221-0.613c-6.679,1.436-12.892,4.744-19.926,4.937c-1.261,0.034-2.438,0.697-3.462,1.537
			c-2.396,1.973-2.142,4.022,0.787,5.097c3.97,1.453,8.185,1.906,12.164,0.563C244.752,107.788,249.958,107.327,254.19,107.604z
			 M313.383,193.896c4.596,0.151,5.426-0.479,6.416-4.862c0.262-1.15,0.559-2.301,0.779-3.459c0.957-4.946-1.253-7.507-6.365-7.322
			c-4.266,0.16-8.295,1.511-12.299,2.779c-3.911,1.234-7.991,2.2-11.444,4.543c-3.352,2.284-3.589,5.517-0.804,8.279
			c3.166,3.149,9.023,3.812,12.638,1.033c2.057-1.579,4.088-1.78,6.425-1.478C310.277,193.619,311.834,193.737,313.383,193.896z
			 M154.545,200.832c-1.744,0-3.487,0.034-5.231-0.017c-0.584-0.017-1.422,0.378-1.701-0.395c-0.237-0.646,0.389-1.167,0.847-1.579
			c2.836-2.553,2.853-2.553,0.288-5.164c-0.897-0.915-1.795-1.822-2.776-2.653c-1.143-0.974-1.93-2.368-3.572-2.779
			c-3.724-0.932-6.975,1.259-8.05,5.743c-0.939,3.913-1.084,7.91-0.855,11.94c0.093,1.688,0.804,2.343,2.387,2.704
			c4.757,1.1,9.565,1.78,14.424,1.931c4.859,0.151,9.15-1.654,13.027-4.417c1.024-0.722,2.133-1.713,1.744-3.157
			c-0.356-1.31-1.701-1.528-2.87-1.797C159.692,200.613,157.11,200.823,154.545,200.832z M212.071,263.126
			c-0.017-3.669-0.94-4.265-4.41-3.031c-2.565,0.915-3.132,0.453-2.582-2.292c0.415-2.066,0.736-4.114,0.533-6.222
			c-0.11-1.1-0.389-1.931-1.803-1.83c-4.029,0.285-8.058,0.512-12.087,0.772c-0.533,0.034-1.16,0.008-1.414,0.621
			c-0.305,0.731,0.127,1.276,0.702,1.595c2.184,1.218,1.828,3.031,1.431,5.004c-0.423,2.099-1.922,3.686-2.438,5.735
			c-0.728,2.897-0.135,4.307,2.692,5.248c2.285,0.756,4.342,1.797,6.348,3.149c5.646,3.787,10.488,1.948,12.418-4.601
			C211.876,265.88,212.223,264.445,212.071,263.126z M203.318,288.736c2.37,0.269,4.732,0.344,6.23-1.906
			c4.757-7.137,8.761-14.669,12.189-22.545c6.458-14.854-2.463-28.129-12.401-35.77c-1.346-1.041-3.75-1.973-4.706-0.395
			c-1.126,1.856,1.177,3.073,2.692,3.653c6.247,2.376,9.201,7.456,11.427,13.174c2.311,5.945,1.989,11.982,0.381,17.994
			c-1.498,5.592-4.571,10.244-8.905,14.148c-3.14,2.83-6.966,2.401-10.682,2.611c-2.912,0.16-5.273,1.419-7.246,3.468
			c-0.872,0.898-1.16,1.604,0.144,2.628C195.683,288.35,199.619,288.056,203.318,288.736z M293.822,177.984
			c6.467-0.252,12.384-1.369,17.886-4.056c5.172-2.519,5.959-6.6,2.446-11.142c-0.999-1.293-1.913-1.62-3.479-0.882
			c-5.333,2.494-10.758,4.786-16.1,7.271c-2.243,1.041-4.266,2.502-5.891,4.408c-1.701,1.998-1.202,3.569,1.388,4.106
			C291.401,177.951,292.806,177.909,293.822,177.984z M230.65,187.674c-1.185,0.076-2.412,0-3.555,0.269
			c-1.541,0.37-3.521,0.546-3.809,2.511c-0.271,1.881,1.007,3.048,2.556,4.131c7.906,5.533,17.192,5.718,26.24,6.843
			c0.923,0.118,1.972-0.092,2.404-0.982c0.533-1.092-0.347-1.931-1.041-2.611C247.139,191.662,239.868,187.523,230.65,187.674z
			 M214.204,248.516c-0.237-4.156-3.665-11.1-7.864-13.561c-3.115-1.822-6.298-1.537-9.057,0.882
			c-1.659,1.453-2.074,3.166-1.541,5.147c0.593,2.192,2.429,2.099,4.215,2.133c3.462,0.05,6.475,0.982,8.405,4.173
			c0.821,1.36,2.142,2.091,3.75,2.519C213.89,250.254,214.305,249.616,214.204,248.516z M119.324,172.728
			c-0.398-3.535-2.311-6.659-3.081-10.126c-0.584-2.645-1.253-5.315-2.539-7.758c-0.821-1.553-2.125-2.796-3.911-2.494
			c-1.938,0.327-1.431,2.25-1.515,3.602c-0.102,1.629,0.135,3.249,0.356,4.887c0.66,4.778,2.819,8.984,4.791,13.283
			c0.753,1.629,1.439,2.83,3.623,2.427C119.451,176.112,118.96,174.273,119.324,172.728z M130.768,198.64
			c0.102-5.533,0.102-5.55-5.426-5.962c-2.531-0.185-4.469-1.419-6.12-3.224c-0.847-0.932-1.947-1.537-3.107-0.882
			c-1.287,0.731-1.067,2.225-0.542,3.174c2.514,4.543,6.052,8.371,9.446,12.251c1.194,1.36,3.09,0.705,4.681,0.143
			c1.608-0.579,0.906-1.973,1.041-3.048C130.844,200.286,130.768,199.463,130.768,198.64z M289.285,219.917
			c-0.195-4.047-2.734-8.422-6.636-8.187c-3.301,0.193-4.926,2.62-5.07,7.104c-0.119,3.82,2.209,6.188,5.536,6.062
			C287.101,224.745,289.327,222.948,289.285,219.917z M268.673,187.733c0-0.034-0.009-0.067-0.009-0.092
			c-1.735,0.151-3.462,0.37-5.197,0.428c-3.471,0.118-6.221,1.721-8.685,3.946c-0.601,0.546-1.532,1.142-0.372,2.158
			c4.308,3.77,15.16,1.982,17.97-3.014c1.574-2.796,1.202-3.426-2.057-3.426C269.774,187.733,269.224,187.733,268.673,187.733z"/>
		<path style="fill:#21518B;" d="M132.605,251.631c0.059-0.957,0.787-1.117,1.304-1.427c0.88-0.537,0.855-1.352,0.779-2.166
			c-0.093-0.982-0.931-1.024-1.642-1.092c-6.128-0.588-12.257-1.192-18.394-1.713c-2.565-0.218-4.529,1.948-7.076,1.914
			c-0.237-8.959,8.795-19.682,17.699-21.05c1.786-0.277,2.726-0.008,2.514,2.183c-0.364,3.72-0.381,7.473-0.669,11.201
			c-0.11,1.453,0.339,2.192,1.778,2.452c1.084,0.193,2.133,0.537,3.2,0.831c3.606,1.008,4.046,0.789,5.62-2.561
			c1.786-3.795,0.923-7.456-0.389-11.151c-0.372-1.041-1.515-2.368-0.559-3.224c0.838-0.747,2.243,0.151,3.352,0.529
			c5.392,1.805,10.572,4.047,13.459,9.287c4.859,8.833,7.051,18.212,4.537,28.187c-2.455,9.765-11.706,16.953-22.88,18.12
			c-4.512,0.47-9.015,0.554-13.382-0.89c-3.792-1.259-7.076-3.14-8.05-7.423c-0.135-0.605-0.432-0.991-0.923-1.268
			c-4.419-2.494-5.654-6.717-6.171-11.293c-0.228-1.99-0.246-4.005-0.44-6.004c-0.161-1.553,0.398-2.124,1.854-1.444
			c1.913,0.89,3.581,0.453,5.113-0.781c1.397-1.125,3.073-1.192,4.715-1.201c3.868-0.017,7.728,0.126,11.588,0.084
			c1.431-0.017,1.668,0.462,1.464,1.763c-0.372,2.393-1.202,4.182-4.029,4.316c-1.05,0.05-2.497,0.109-2.751,1.276
			c-0.296,1.36,0.711,2.704,1.642,3.543c0.838,0.756,2.226,0.428,3.31-0.26c3.851-2.418,7.669-2.141,11.351,0.311
			c2.184,1.453,4.596,2.737,7.263,3.208c1.803,0.319,3.784,0.605,4.529-1.822c0.736-2.41-0.076-4.03-2.446-5.063
			c-2.404-1.041-5.028-0.982-7.533-1.553c-1.718-0.386-2.971-0.999-3.741-2.754C137.506,252.186,134.738,252.353,132.605,251.631z
			 M127.975,279.34c4.427,0.042,6.822-2.192,6.822-6.348c0-4.585-3.132-8.111-7.144-8.044c-5.316,0.084-9.624,5.038-8.964,10.219
			c0.127,0.991,0.381,1.679,1.38,2.099C122.617,278.341,125.156,279.34,127.975,279.34z M108.803,260.171
			c0.025,1.889,0.195,3.56,1.507,4.937c1.16,1.201,1.71,2.771,2.252,4.316c0.305,0.89,0.212,2.032,1.701,2.049
			c1.405,0.017,2.192-0.621,2.709-1.831c1.312-3.048,1.456-6.18,0.457-9.303c-0.914-2.83-2.489-3.518-5.282-2.628
			c-0.339,0.109-0.728,0.126-1.084,0.084C109.065,257.551,108.396,258.449,108.803,260.171z"/>
		<path style="fill:#21518B;" d="M270.899,135.245c-1.346-0.252-3.547,0.227-3.42-1.705c0.144-2.158,2.243-2.872,4.334-2.855
			c1.651,0.017,3.487,0.353,3.242,2.393C274.785,135.321,272.575,135.002,270.899,135.245z"/>
	</g>
</g>
</svg>
