<?xml version="1.0" encoding="utf-8"?>
<!-- Generator: Adobe Illustrator 23.0.5, SVG Export Plug-In . SVG Version: 6.00 Build 0)  -->
<svg version="1.1" id="Capa_1" xmlns="http://www.w3.org/2000/svg" xmlns:xlink="http://www.w3.org/1999/xlink" x="0px" y="0px"
	 viewBox="0 0 425.2 425.2" style="enable-background:new 0 0 425.2 425.2;" xml:space="preserve">
<g>
	<g>
		<path style="fill:#21518B;" d="M42,192.67c1.22-1.96,0.68-4.21,0.92-6.3c1.74-14.53,4.85-28.7,10.02-42.46
			c6.92-18.43,16.73-35.08,29.29-50.32c7.44-9.03,16.01-16.73,24.85-24.27c12.95-11.06,27.89-18.54,43.38-25.37
			c25.16-11.08,51.57-13.49,78.61-12.59c17.5,0.59,34.64,3.51,50.94,9.71c16.88,6.42,33.14,14.36,47.27,25.76
			c8.52,6.87,17.02,13.9,24.06,22.37c8.58,10.31,16.68,20.95,23.03,32.86c7.01,13.12,12.35,26.84,15.89,41.21
			c2.68,10.89,4.39,22.01,4.6,33.27c0.24,12.87,0.39,25.74-1.54,38.53c-2.59,17.13-7.45,33.54-14.91,49.25
			c-4.28,9.03-9.62,17.33-15.12,25.63c-5.38,8.14-12.06,15.1-18.67,22.18c-10.01,10.72-21.99,18.85-34.3,26.7
			c-14.14,9.03-29.52,14.94-45.68,18.89c-28.96,7.09-58.13,7.09-87.26,1.18c-16.38-3.32-32.05-8.98-46.43-17.44
			c-12.13-7.14-24-14.86-34.03-24.85c-7.64-7.6-15.24-15.31-21.5-24.12c-10.61-14.95-19.22-30.97-24.85-48.42
			c-4.3-13.33-7.04-26.98-8.02-40.96c-0.03-0.51,0.14-1.13-0.54-1.4C42,212.02,42,202.34,42,192.67z M357.74,305.26
			c4.44-6.42,8.54-12.93,12.05-19.87c9.23-18.2,14.99-37.31,17.01-57.58c3.5-35.19-1.25-68.89-17.88-100.56
			c-7.35-14-16.6-26.67-27.48-38.05c-10.83-11.32-23.24-20.85-36.85-28.78c-15.47-9.02-32.17-15.39-49.6-18.72
			c-27.19-5.19-54.5-5.39-81.56,2.31c-19.65,5.59-38.23,13.09-54.59,25.54c-9.48,7.21-18.64,14.64-26.6,23.59
			c-13.08,14.69-23.46,30.89-30.82,49.09c-6.2,15.35-10.17,31.19-11.33,47.67c-1.85,25.98-0.1,51.55,8.91,76.33
			c6.35,17.46,15.54,33.3,26.9,47.96c6.23,8.04,13.65,15.01,21.15,21.81c11.87,10.76,25.71,18.83,40.14,25.55
			c19.76,9.19,40.83,13.59,62.71,14.26c29.9,0.91,58.74-2.96,85.59-17.15c13.4-7.09,26.35-14.69,37.33-25.31
			c4.93-4.78,9.98-9.44,14.58-14.54c3.52-3.9,6.7-8.04,9.57-12.75c-5.65,1.03-11.38,0.76-16.15,3.9c-3.07,2.02-6.53,3.17-9.73,4.87
			c-1.42,0.76-2.43,1.91-3.13,3.36c-1.41,2.91-3.74,4.41-7.01,4.47c-3.12,0.06-6.26,0.24-9.38,0.16c-6.97-0.19-12.82,2.72-18.4,6.4
			c-1.02,0.67-2.71,1.44-2.45,2.7c0.31,1.53,2.28,1.1,3.53,1.43c1.35,0.34,3.32,0.47,3.54,1.64c0.29,1.53-1.68,2.16-2.92,2.8
			c-7.42,3.9-15.34,4.04-23.38,2.81c-4.67-0.71-4.72-0.81-3.5-5.32c0.43-1.6,0.25-2.39-1.6-2.44c-2.02-0.06-4.04-0.28-6.05-0.43
			c-6.88-0.51-13.76-1.04-20.65-1.49c-1.28-0.08-1.52-0.51-1.68-1.78c-0.31-2.73,1.79-3.27,3.39-4.37
			c12.14-8.35,25.42-12.92,40.37-12.28c5.51,0.24,11.05,0.25,16.57,0.12c3.84-0.09,7.41,0.51,11,1.98
			c6.52,2.66,12.57,0.75,17.91-3.11c5.53-3.99,11.2-7.74,17.94-8.99C349.41,301.68,354.18,300.87,357.74,305.26z M295.06,321.73
			c-2.56-0.82-4.93-0.92-7.29-0.65c-4.02,0.44-7.84-0.16-11.53-1.8c-2.02-0.9-4.15-1.64-6.39-1.32c-5.93,0.83-11.63,2.49-17.07,4.97
			c-0.94,0.43-2.33,0.81-2.07,2.19c0.24,1.28,1.65,1.4,2.67,1.57c3.19,0.53,6.4,0.24,9.61-0.06c4.59-0.42,9.56-1.23,13.48,1.28
			c5.03,3.22,8.85,2.41,12.95-1.17C291.22,325.15,293.71,324.32,295.06,321.73z"/>
		<path style="fill:#21518B;" d="M195.29,312.1c-9.45-0.39-18.71-2.3-28.03-3.59c-17.66-2.45-35.13-6.03-52.64-9.29
			c-3.72-0.7-7.52-0.44-11.29-0.39c-5.6,0.08-11.23,0.62-16.79-0.44c-1.26-0.24-3.17,0.15-3.2-2.12c-0.03-1.91-0.26-3.59,2.32-4.43
			c5.71-1.86,11.16-4.4,16.6-6.98c1.35-0.64,1.74-1.39,1.6-2.72c-0.2-2.03-0.65-4.01-1.83-5.68c-7.93-11.17-8.74-23.44-5.88-36.32
			c2.12-9.56,7.15-17.27,14.74-23.39c1.47-1.19,2.17-2.47,2.21-4.38c0.21-11.23-0.47-22.45-0.96-33.66
			c-0.1-2.38-0.99-4.65-1.96-6.81c-2.81-6.22-4.31-12.77-4.98-19.51c-0.56-5.7,0.96-8.16,6.37-10.22c2.04-0.77,3.31-2.28,4.32-3.95
			c1.81-3,0.77-6.77-2.26-7.45c-7.91-1.76-10.51-7.83-12.61-14.45c-0.22-0.69-0.32-1.42-0.48-2.13c-1.95-8.29,1.61-13.7,10.09-15.2
			c10.77-1.91,20.63,1.07,29.93,6.06c6.04,3.23,11.66,7.15,16.79,11.76c2.22,1.99,5.13,2.85,8.14,2.96
			c9.04,0.36,14.97,5.78,20.3,12.19c0.45,0.55,0.95,1.29,0.94,1.94c-0.04,4.48,3.48,6.54,6.25,8.98c4.55,4.01,9.55,7.39,14.76,10.52
			c5.49,3.29,7.86,8.53,8.1,14.69c0.19,4.94-2.72,8.98-7.71,10.87c-6.92,2.63-14.15,3.01-21.47,2.43c-2.94-0.24-5.87-0.48-8.79-0.79
			c-1.35-0.14-1.96,0.27-2.21,1.68c-0.53,3.08-0.84,6.15-0.56,9.26c0.29,3.17,1.52,4.29,4.69,4.51c1.38,0.09,2.76,0.14,4.13,0.32
			c9,1.17,16.39-2.44,23.44-7.43c2.07-1.47,4.66-2.4,7.3-2.13c6.75,0.69,13.4-0.47,20.09-0.89c5.8-0.37,11.21,1.35,16.46,3.55
			c0.8,0.34,1.42,0.84,2.07-0.11c1.74-2.53,4.45-2.93,7.23-3.29c5.83-0.76,11.67-1.49,17.23-3.55c4.71-1.75,6.68-5.43,5.68-10.37
			c-0.25-1.19-0.96-0.89-1.62-0.85c-5.94,0.44-10.91-1.96-15.65-5.14c-0.82-0.55-1.3-1.16-1.49-2.14c-0.3-1.61-0.82-3.18-1.11-4.79
			c-0.35-1.89-1.4-3.11-3.17-3.8c-10.87-4.2-15.91-13.2-19.43-23.37c-1.22-3.51,0.31-6.83,1.51-10.08c0.73-2,1.17-4.01,1.09-6.15
			c-0.06-1.8-0.82-2.55-2.69-2.59c-4.69-0.1-9.4,0.12-14.06-0.55c-1.27-0.18-2.55-0.35-3.8-0.62c-2.05-0.43-4-1.06-4.14-3.63
			c-0.14-2.53,0.45-4.58,2.98-5.91c9.34-4.91,19.33-7.84,29.59-10.11c3.6-0.79,6.63-2.91,9.33-5.3c8.12-7.17,17.38-12.1,28.24-13.09
			c16.14-1.49,30.71,2.4,40.46,16.1c9.29,13.04,10.64,29.12-2.57,43.26c-2.53,2.71-4.49,5.42-4.49,9.53
			c-0.01,4.84-2.67,9.02-5.3,13.01c-1.27,1.92-2.07,3.38,0.67,4.94c2.4,1.36,2.34,4.1,1.97,6.43c-0.38,2.4,0.68,3.24,2.72,3.75
			c2.04,0.52,4.04,1.19,6.05,1.83c8.21,2.59,12.49,8.76,13.75,16.63c2.65,16.62-1.09,32.04-10.38,46.11c-1.82,2.75-2.56,5.84-3,8.98
			c-0.97,7.04-1.8,14.11-2.66,21.18c-0.12,0.99-0.17,2.01-0.14,3.01c0.15,6.7,2.23,8.62,8.9,8.27c0.46-0.03,0.92-0.06,1.38-0.06
			c3.09,0.01,6.56-0.66,8.22,2.91c1.88,4.06,1.78,8.16-0.85,11.96c-2.63,3.8-6.64,5.07-10.99,5.37c-5.85,0.4-11.6-0.39-17-2.69
			c-2.62-1.12-5.05-1.24-7.69-0.24c-7.11,2.72-14.25,5.33-21.36,8.04c-4.44,1.69-8.85,3.13-13.59,0.99
			c-3.7-1.67-4.31-2.93-3.28-6.82c1.13-4.27,4.62-6.17,8.15-7.99c4.69-2.42,9.4-4.8,14.16-7.07c2.9-1.38,4.51-3.43,4.97-6.66
			c1.12-7.94,2.45-15.86,3.67-23.79c0.13-0.81,0.14-1.64,0.28-2.44c0.37-1.98-0.23-3.12-2.34-3.81c-5.51-1.84-9.51-5.42-11.34-11.02
			c-0.78-2.38-2.27-3.3-4.69-3.25c-6.82,0.15-8.85-2.74-8.84-9.62c0.01-2.11,0.41-4.16,0.77-6.24c0.25-1.42,0.52-3.02-1.04-3.96
			c-1.6-0.96-3.4-0.59-5.12-0.44c-0.71,0.06-0.62,0.79-0.65,1.31c-0.07,0.91-0.16,1.82-0.14,2.74c0.2,9.14-4.87,12.37-12.6,13.83
			c-8.57,1.62-17.06,0.72-25.13-2.75c-5.47-2.36-10.92-1.91-16.45-0.34c-1.55,0.44-1.55,1.24-0.87,2.43
			c1.02,1.77,2.41,3.25,3.92,4.56c12.86,11.19,13.62,25.34,6.1,38.99c-2.82,5.11-6.09,9.92-9.51,14.69
			c-2.78,3.88-2.89,4.16,1.79,5.87c3.35,1.22,6.86,2.02,10.29,3.03c1.32,0.39,2.64,0.79,3.92,1.29c0.83,0.33,2.05,0.66,2.03,1.62
			c-0.02,0.9-1.19,1.29-2.03,1.59c-7.39,2.53-15.06,4.01-22.63,5.89c-0.36,0.09-0.72,0.18-1.08,0.22c-2.89,0.21-4.67,1.22-3.68,4.58
			c0.53,1.83-0.52,2.43-2.26,2.33C198.06,312.04,196.67,312.1,195.29,312.1z M171.44,255.98c0.04-4.01-0.42-7.97-1.3-11.91
			c-3.73-16.9-14.23-27.24-30.96-31.4c-6.88-1.71-13.52-0.56-20.04,2.24c-5.72,2.46-10.49,5.94-14.21,10.87
			c-5.49,7.25-6.96,15.76-7.55,24.46c-0.4,5.76,0.41,11.59,2.04,17.03c1.41,4.69,4.29,9,6.8,13.32c4.38,7.53,10.63,12.75,19.6,13.92
			c9.26,1.21,18.12-0.57,26.62-4.21c1.91-0.82,3.82-1.92,5.36-3.3C167.04,278.71,171.58,268.35,171.44,255.98z M285.37,166.91
			c3.53-0.11,6.61-1.41,9.73-3.04c6.14-3.19,12.02-6.66,16.89-11.64c3.78-3.88,6.68-8.19,7.14-13.78c0.18-2.17-0.2-3.81-2.73-4.14
			c-4.04-0.53-6.67-3.2-9.23-5.99c-2.78-3.03-5.29-6.31-8.48-8.97c-2.1-1.75-4.38-3.28-6.92-4.22c-4.26-1.56-7.45,1.07-10.28,3.54
			c-4.53,3.95-9.56,5.84-15.6,5.67c-4.22-0.12-8.45,0.41-12.46,1.94c-2.67,1.02-4.88,2.59-5.66,5.51c-0.5,1.85-0.62,3.48,2.19,3.33
			c1.21-0.07,2.07,0.66,2.4,1.88c0.21,0.84-0.18,1.59-0.9,1.8c-2.83,0.85-1.36,2.35-0.6,3.66c0.55,0.94,1.32,1.75,1.96,2.64
			c4.93,6.86,15.01,9,22.4,4.79c2.15-1.23,4.37-2.32,6.58-3.43c0.83-0.42,2.07-0.87,2.56-0.17c0.67,0.97-0.44,1.78-1.15,2.46
			c-2.3,2.2-5.37,3.12-8.06,4.66c-2.07,1.19-4.05,2.49-5.18,4.74c-0.62,1.23-0.59,2.27,0.6,3.12
			C275,164.43,279.7,166.91,285.37,166.91z M338.25,207.17c-0.94,0.59-1.39,0.87-1.84,1.15c-2.79,1.75-4.86,4.44-7.56,6.2
			c-6.88,4.48-14.35,7.73-22.58,8.93c-4.27,0.62-8.56,1.18-12.82,1.89c-4.22,0.71-4.76,1.86-2.89,5.74c0.24,0.49,0.48,1.01,0.85,1.4
			c3.59,3.84,6.42,8.46,11.44,10.82c1.49,0.7,2.14,1.95,2.07,3.55c-0.07,1.45-0.12,2.92-0.33,4.36c-1.19,8.11-2.6,16.21-3.56,24.34
			c-0.43,3.66-1.88,6.04-5.22,7.64c-5.25,2.52-10.35,5.32-15.53,7.97c-2.14,1.09-4.12,2.38-5.77,4.14
			c-0.79,0.84-1.32,1.77-0.91,2.96c0.42,1.21,1.46,1.6,2.59,1.73c2.67,0.32,5.32,0.26,7.97-0.28c7.81-1.59,14.96-4.9,22.02-8.41
			c1.11-0.55,1.32-1.33,1.41-2.39c0.74-9.64,1.47-19.28,2.29-28.91c0.47-5.54,1-11.08,2.08-16.55c0.29-1.45,1.06-1.86,2.48-1.91
			c1.79-0.07,1.55,1.17,1.68,2.18c0.81,6.78-0.33,13.48-1.09,20.17c-0.85,7.45-1.79,14.86-0.3,22.33c0.17,0.84,0.21,1.61,1.19,1.95
			c6.28,2.15,12.63,4.03,19.38,3.48c2.11-0.18,4.16-0.77,5.44-2.78c1.35-2.11,1.42-4.42,0.59-6.57c-0.7-1.81-2.82-1.24-4.36-1.4
			c-2.65-0.26-5.33-0.23-7.98-0.47c-3.31-0.31-5.33-2.28-6.22-5.37c-0.4-1.39-0.65-2.85-0.73-4.3c-0.51-8.88,0.36-17.67,1.7-26.44
			c0.39-2.56,1.3-4.98,2.79-7.04c2.16-2.96,4.16-6.01,5.79-9.28C335.52,221.61,337.78,214.94,338.25,207.17z M160.46,134.08
			c-7.97-0.01-14.11,0.9-17.58,2.59c-3.64,1.77-4.86,4.61-3.83,8.53c0.85,3.27,3.06,5.53,5.49,7.67
			c6.68,5.88,14.95,9.08,22.81,12.83c6.01,2.87,12.51,4.73,19.14,5.88c6.48,1.13,12.8,1.84,19-1.73c2.9-1.67,3.29-3.59,2.68-6.23
			c-0.55-2.42-1.63-4.62-3.49-6.4c-2.33-2.23-4.99-4.01-7.71-5.71c-3.28-2.05-6.58-4.16-8.41-7.69c-2.98-5.76-8.28-7.61-14.11-8.58
			C169.84,134.46,165.17,134.05,160.46,134.08z M146.19,123c-2.64,0-5.15-0.24-7.6,0.04c-8.99,1.02-10.78,3.47-11.65,10.39
			c-0.31,2.51-1.34,4.57-3.94,5.44c-1.55,0.52-2.25,1.69-2.8,3.1c-0.7,1.82-0.99,3.71-0.88,5.63c0.44,8.01,0.97,16.01,1.41,24.01
			c0.21,3.85,0.85,7.61,1.95,11.29c0.8,2.68,2.12,4.96,4.82,6.32c2.06,1.03,3.85,0.32,4.08-1.92c0.15-1.43-0.22-2.74-1.29-3.74
			c-0.96-0.92-1.62-2.01-1.83-3.29c-1.18-7.35-1.13-14.7,0.1-22.04c0.4-2.39,1.94-3.37,4.29-3.32c1.48,0.03,2.89-0.17,4.27-0.81
			c1.69-0.79,1.78-1.75,0.91-3.22c-1.11-1.91-2.92-3.01-4.6-4.26c-2.86-2.11-3.25-4.68-0.85-8.04c0.58-0.81,1.46-1.41,2.04-2.22
			c5.34-7.56,12.9-9.4,21.59-8.25c2.63,0.34,5.25,0.87,7.87,1.33c2.89,0.5,5.78,1.26,8.69,0.15c1.26-0.49,2.6-0.78,2.44-2.73
			c-0.15-1.78-0.97-2.55-2.62-2.96c-3.67-0.92-7.37-1.39-11.16-1.4C156.31,122.48,151.19,123.44,146.19,123z M322.34,107.32
			c0.91,0,1.84,0.02,2.76,0c3.99-0.09,5.1-2.23,3.02-5.74c-0.58-0.97-1.36-1.69-2.3-2.3c-1.71-1.11-3.64-1.7-5.54-2.36
			c-6.47-2.23-12.98-3.84-19.24-7.22c-8.35-4.52-18.19-5.41-27.88-4.11c-2.25,0.3-4.58,0.49-6.67,1.53c-2.1,1.05-2.9,3-2.52,5.02
			c0.35,1.81,2.36,1.2,3.68,1.28c2.75,0.16,5.52-0.03,8.23,0.62c1.44,0.35,3.08,0.67,3.52,2.27c0.95,3.45,3.72,4.22,6.66,4.84
			c1.61,0.34,3.25,0.57,4.87,0.92C301.3,104.29,311.61,107.06,322.34,107.32z M337.65,196.13c0.04-2.97-0.35-5.32-1.07-7.57
			c-1.33-4.15-3.33-7.94-7.34-10.2c-2.78-1.57-3.45-1.34-4.19,1.66c-0.8,3.27-1.46,6.59-1.87,9.92c-1.03,8.43-5.08,11.48-13.52,9.88
			c-2.62-0.5-5.18-1.21-7.8-1.63c-1.91-0.3-3.8,0.14-4.66,2.09c-0.85,1.92,0.58,3.17,1.95,4.07c3.15,2.07,5.55,4.91,7.43,7.99
			c2.51,4.11,5.97,4.31,9.97,3.55c5.6-1.06,9.73-4.79,14.23-7.81C335.19,205.13,338.22,201.27,337.65,196.13z M139.33,119.84
			c2.41-0.11,4.54,0.18,6.62-0.33c1.46-0.35,2.9-0.73,3.23-2.5c0.35-1.83-0.69-2.84-2.13-3.72c-5.79-3.57-11.85-6.61-18.3-8.76
			c-5.97-1.99-12.1-3.17-18.41-1.65c-4.63,1.12-6.93,5.11-6.02,9.77c1.35,6.89,5.98,11.04,11.66,14.4c3.11,1.84,4.71,1.46,6.64-1.53
			c0.59-0.92,1.03-1.93,1.58-2.87c1.4-2.43,3.39-3.71,6.34-3.42C133.56,119.53,136.6,119.65,139.33,119.84z M172.08,220.68
			c1.01,0,2.02-0.06,3.03,0.01c2.06,0.15,2.11-0.84,1.38-2.28c-0.7-1.39-1.54-2.7-2.16-4.11c-0.76-1.74-0.48-2.91,1.8-3.17
			c3.62-0.39,6.94,0.47,10.06,2.12c6.02,3.19,12.22,5.73,19.19,5.65c1.76-0.02,4.13,0.34,4.99-1.38c0.96-1.93-0.27-4.05-1.28-5.89
			c-0.25-0.47-0.65-0.88-1.02-1.28c-4.96-5.37-10.89-9.32-18.11-10.79c-6.04-1.23-11.91-1.01-16.19,4.59
			c-1.8,2.35-4.38,3.84-7.16,4.91c-1.54,0.6-3.04,1.27-4.2,2.52c-2.71,2.91-2.44,5.25,0.93,7.3
			C166.01,220.54,169.03,220.77,172.08,220.68z M206.74,194.72c-0.84,0-1.3-0.02-1.76,0c-2.19,0.08-5.23-0.07-5.84,1.97
			c-0.7,2.33,1.74,4.11,3.79,5.46c5.98,3.93,10.72,8.82,12.55,15.97c0.53,2.06,1.9,3.32,4.05,3.56c4.45,0.5,8.81,0.05,12.98-1.62
			c1.46-0.59,2.74-1.45,3.64-2.82c2.71-4.13,1.19-9.87-3.53-12.4c-4.19-2.25-8.56-4.16-12.1-7.48c-1.36-1.28-3.27-1.66-5.1-1.87
			C212.42,195.16,209.39,194.95,206.74,194.72z M245.37,203.62c-2.56-0.12-4.65,0.39-5.58,2.85c-0.87,2.32-0.59,4.78,0.08,7.01
			c0.43,1.4,2.43,1.39,3.7,2.04c0.57,0.29,1.21,0.44,1.77,0.76c0.76,0.42,2.04,0.51,1.99,1.59c-0.05,1.06-1.26,1.16-2.11,1.44
			c-1.5,0.5-4.02,0.44-3.91,2.17c0.12,1.82,2.59,2.28,4.33,2.85c0.43,0.14,0.91,0.13,1.36,0.18c7.79,0.74,13.16-2.95,15.95-10.95
			c0.81-2.34,1.61-4.79,3.79-6.2c5.21-3.33,10.77-5.54,17.16-4.28c3.67,0.72,5.14-0.97,3.98-4.61c-1.46-4.58-6.56-7.07-11.88-5.89
			c-2.09,0.46-3.79,1.48-3.98,3.6c-0.3,3.44-2.46,4.53-5.32,5.79c-5.14,2.25-10.26,3.31-15.8,2.3
			C249.04,203.92,247.1,203.81,245.37,203.62z M156.75,172.98c-3.96-0.04-7.56-0.19-11.05,0.88c-2.86,0.87-3.72,3.4-1.63,5.54
			c1.63,1.67,2.38,3.58,3.01,5.7c2.17,7.24,6.18,12.54,14.44,13.4c4.21,0.44,6.94-1.09,8.18-5.16c1.55-5.09,1.46-10.25,0.21-15.4
			c-0.63-2.59-2.49-3.91-5.02-4.48C162.07,172.84,159.22,173.08,156.75,172.98z M254.19,107.6c6.26,0.1,11.4,0.12,16.48-0.94
			c2.12-0.44,3.87-1.13,4-3.69c0.13-2.55-1.07-4.34-3.44-4.97c-7-1.88-14.2-2.12-21.22-0.61c-6.68,1.44-12.89,4.74-19.93,4.94
			c-1.26,0.03-2.44,0.7-3.46,1.54c-2.4,1.97-2.14,4.02,0.79,5.1c3.97,1.45,8.19,1.91,12.16,0.56
			C244.75,107.79,249.96,107.33,254.19,107.6z M313.38,193.9c4.6,0.15,5.43-0.48,6.42-4.86c0.26-1.15,0.56-2.3,0.78-3.46
			c0.96-4.95-1.25-7.51-6.37-7.32c-4.27,0.16-8.3,1.51-12.3,2.78c-3.91,1.23-7.99,2.2-11.44,4.54c-3.35,2.28-3.59,5.52-0.8,8.28
			c3.17,3.15,9.02,3.81,12.64,1.03c2.06-1.58,4.09-1.78,6.42-1.48C310.28,193.62,311.83,193.74,313.38,193.9z M154.55,200.83
			c-1.74,0-3.49,0.03-5.23-0.02c-0.58-0.02-1.42,0.38-1.7-0.39c-0.24-0.65,0.39-1.17,0.85-1.58c2.84-2.55,2.85-2.55,0.29-5.16
			c-0.9-0.92-1.79-1.82-2.78-2.65c-1.14-0.97-1.93-2.37-3.57-2.78c-3.72-0.93-6.97,1.26-8.05,5.74c-0.94,3.91-1.08,7.91-0.85,11.94
			c0.09,1.69,0.8,2.34,2.39,2.7c4.76,1.1,9.57,1.78,14.42,1.93c4.86,0.15,9.15-1.65,13.03-4.42c1.02-0.72,2.13-1.71,1.74-3.16
			c-0.36-1.31-1.7-1.53-2.87-1.8C159.69,200.61,157.11,200.82,154.55,200.83z M212.07,263.13c-0.02-3.67-0.94-4.27-4.41-3.03
			c-2.56,0.92-3.13,0.45-2.58-2.29c0.41-2.07,0.74-4.11,0.53-6.22c-0.11-1.1-0.39-1.93-1.8-1.83c-4.03,0.29-8.06,0.51-12.09,0.77
			c-0.53,0.03-1.16,0.01-1.41,0.62c-0.3,0.73,0.13,1.28,0.7,1.6c2.18,1.22,1.83,3.03,1.43,5c-0.42,2.1-1.92,3.69-2.44,5.73
			c-0.73,2.9-0.14,4.31,2.69,5.25c2.29,0.76,4.34,1.8,6.35,3.15c5.65,3.79,10.49,1.95,12.42-4.6
			C211.88,265.88,212.22,264.44,212.07,263.13z M203.32,288.74c2.37,0.27,4.73,0.34,6.23-1.91c4.76-7.14,8.76-14.67,12.19-22.54
			c6.46-14.85-2.46-28.13-12.4-35.77c-1.35-1.04-3.75-1.97-4.71-0.39c-1.13,1.86,1.18,3.07,2.69,3.65
			c6.25,2.38,9.2,7.46,11.43,13.17c2.31,5.94,1.99,11.98,0.38,17.99c-1.5,5.59-4.57,10.24-8.9,14.15c-3.14,2.83-6.97,2.4-10.68,2.61
			c-2.91,0.16-5.27,1.42-7.25,3.47c-0.87,0.9-1.16,1.6,0.14,2.63C195.68,288.35,199.62,288.06,203.32,288.74z M293.82,177.98
			c6.47-0.25,12.38-1.37,17.89-4.06c5.17-2.52,5.96-6.6,2.45-11.14c-1-1.29-1.91-1.62-3.48-0.88c-5.33,2.49-10.76,4.79-16.1,7.27
			c-2.24,1.04-4.27,2.5-5.89,4.41c-1.7,2-1.2,3.57,1.39,4.11C291.4,177.95,292.81,177.91,293.82,177.98z M230.65,187.67
			c-1.19,0.08-2.41,0-3.56,0.27c-1.54,0.37-3.52,0.55-3.81,2.51c-0.27,1.88,1.01,3.05,2.56,4.13c7.91,5.53,17.19,5.72,26.24,6.84
			c0.92,0.12,1.97-0.09,2.4-0.98c0.53-1.09-0.35-1.93-1.04-2.61C247.14,191.66,239.87,187.52,230.65,187.67z M214.2,248.52
			c-0.24-4.16-3.67-11.1-7.86-13.56c-3.11-1.82-6.3-1.54-9.06,0.88c-1.66,1.45-2.07,3.17-1.54,5.15c0.59,2.19,2.43,2.1,4.22,2.13
			c3.46,0.05,6.48,0.98,8.41,4.17c0.82,1.36,2.14,2.09,3.75,2.52C213.89,250.25,214.31,249.62,214.2,248.52z M119.32,172.73
			c-0.4-3.54-2.31-6.66-3.08-10.13c-0.58-2.64-1.25-5.32-2.54-7.76c-0.82-1.55-2.12-2.8-3.91-2.49c-1.94,0.33-1.43,2.25-1.52,3.6
			c-0.1,1.63,0.14,3.25,0.36,4.89c0.66,4.78,2.82,8.98,4.79,13.28c0.75,1.63,1.44,2.83,3.62,2.43
			C119.45,176.11,118.96,174.27,119.32,172.73z M130.77,198.64c0.1-5.53,0.1-5.55-5.43-5.96c-2.53-0.18-4.47-1.42-6.12-3.22
			c-0.85-0.93-1.95-1.54-3.11-0.88c-1.29,0.73-1.07,2.23-0.54,3.17c2.51,4.54,6.05,8.37,9.45,12.25c1.19,1.36,3.09,0.71,4.68,0.14
			c1.61-0.58,0.91-1.97,1.04-3.05C130.84,200.29,130.77,199.46,130.77,198.64z M289.28,219.92c-0.19-4.05-2.73-8.42-6.64-8.19
			c-3.3,0.19-4.93,2.62-5.07,7.1c-0.12,3.82,2.21,6.19,5.54,6.06C287.1,224.75,289.33,222.95,289.28,219.92z M268.67,187.73
			c0-0.03-0.01-0.07-0.01-0.09c-1.74,0.15-3.46,0.37-5.2,0.43c-3.47,0.12-6.22,1.72-8.68,3.95c-0.6,0.55-1.53,1.14-0.37,2.16
			c4.31,3.77,15.16,1.98,17.97-3.01c1.57-2.8,1.2-3.43-2.06-3.43C269.77,187.73,269.22,187.73,268.67,187.73z"/>
		<path style="fill:#21518B;" d="M132.61,251.63c0.06-0.96,0.79-1.12,1.3-1.43c0.88-0.54,0.85-1.35,0.78-2.17
			c-0.09-0.98-0.93-1.02-1.64-1.09c-6.13-0.59-12.26-1.19-18.39-1.71c-2.56-0.22-4.53,1.95-7.08,1.91
			c-0.24-8.96,8.79-19.68,17.7-21.05c1.79-0.28,2.73-0.01,2.51,2.18c-0.36,3.72-0.38,7.47-0.67,11.2c-0.11,1.45,0.34,2.19,1.78,2.45
			c1.08,0.19,2.13,0.54,3.2,0.83c3.61,1.01,4.05,0.79,5.62-2.56c1.79-3.8,0.92-7.46-0.39-11.15c-0.37-1.04-1.52-2.37-0.56-3.22
			c0.84-0.75,2.24,0.15,3.35,0.53c5.39,1.81,10.57,4.05,13.46,9.29c4.86,8.83,7.05,18.21,4.54,28.19
			c-2.45,9.77-11.71,16.95-22.88,18.12c-4.51,0.47-9.01,0.55-13.38-0.89c-3.79-1.26-7.08-3.14-8.05-7.42
			c-0.14-0.6-0.43-0.99-0.92-1.27c-4.42-2.49-5.65-6.72-6.17-11.29c-0.23-1.99-0.25-4.01-0.44-6c-0.16-1.55,0.4-2.12,1.85-1.44
			c1.91,0.89,3.58,0.45,5.11-0.78c1.4-1.13,3.07-1.19,4.71-1.2c3.87-0.02,7.73,0.13,11.59,0.08c1.43-0.02,1.67,0.46,1.46,1.76
			c-0.37,2.39-1.2,4.18-4.03,4.32c-1.05,0.05-2.5,0.11-2.75,1.28c-0.3,1.36,0.71,2.7,1.64,3.54c0.84,0.76,2.23,0.43,3.31-0.26
			c3.85-2.42,7.67-2.14,11.35,0.31c2.18,1.45,4.6,2.74,7.26,3.21c1.8,0.32,3.78,0.6,4.53-1.82c0.74-2.41-0.08-4.03-2.45-5.06
			c-2.4-1.04-5.03-0.98-7.53-1.55c-1.72-0.39-2.97-1-3.74-2.75C137.51,252.19,134.74,252.35,132.61,251.63z M127.97,279.34
			c4.43,0.04,6.82-2.19,6.82-6.35c0-4.58-3.13-8.11-7.14-8.04c-5.32,0.08-9.62,5.04-8.96,10.22c0.13,0.99,0.38,1.68,1.38,2.1
			C122.62,278.34,125.16,279.34,127.97,279.34z M108.8,260.17c0.03,1.89,0.19,3.56,1.51,4.94c1.16,1.2,1.71,2.77,2.25,4.32
			c0.3,0.89,0.21,2.03,1.7,2.05c1.41,0.02,2.19-0.62,2.71-1.83c1.31-3.05,1.46-6.18,0.46-9.3c-0.91-2.83-2.49-3.52-5.28-2.63
			c-0.34,0.11-0.73,0.13-1.08,0.08C109.06,257.55,108.4,258.45,108.8,260.17z"/>
		<path style="fill:#21518B;" d="M270.9,135.25c-1.35-0.25-3.55,0.23-3.42-1.7c0.14-2.16,2.24-2.87,4.33-2.85
			c1.65,0.02,3.49,0.35,3.24,2.39C274.78,135.32,272.58,135,270.9,135.25z"/>
	</g>
</g>
</svg>
