<?xml version="1.0" encoding="UTF-8"?>
<!DOCTYPE svg PUBLIC "-//W3C//DTD SVG 1.1//EN" "http://www.w3.org/Graphics/SVG/1.1/DTD/svg11.dtd">
<!-- Creator: CorelDRAW 2020 (64-Bit) -->
<svg xmlns="http://www.w3.org/2000/svg" xml:space="preserve" width="0.9cm" height="0.9cm" version="1.1" style="shape-rendering:geometricPrecision; text-rendering:geometricPrecision; image-rendering:optimizeQuality; fill-rule:evenodd; clip-rule:evenodd"
viewBox="0 0 900 900"
 xmlns:xlink="http://www.w3.org/1999/xlink"
 xmlns:xodm="http://www.corel.com/coreldraw/odm/2003">
 <defs>
  <style type="text/css">
   <![CDATA[
    .str0 {stroke:#090CAD;stroke-width:12.35;stroke-miterlimit:22.9256}
    .fil3 {fill:#FEFEFE}
    .fil0 {fill:#00AFEF}
    .fil1 {fill:#090CAD}
    .fil2 {fill:white}
   ]]>
  </style>
 </defs>
 <g id="Capa_x0020_1">
  <metadata id="CorelCorpID_0Corel-Layer"/>
  <circle class="fil0 str0" cx="438.31" cy="458.47" r="435.03"/>
  <path class="fil1" d="M135.24 606.83c-0.29,-4.42 -0.5,-6.85 -1.36,-11.14 -0.75,-3.72 -0.62,-7.15 -1.31,-11.07 -3.88,-22.24 -2.05,-43.42 5.37,-64.54 19.17,-54.46 81,-69.77 128.69,-43.28 66.46,36.92 69.47,162.4 -7.69,187.59 -12.59,4.11 -27.67,7.38 -42.04,7.57 -21.33,0.28 -35.88,-5.43 -50.14,-17.69 -2.47,-2.13 -6.72,-7.29 -8.69,-9.88 -7.22,-9.5 -12.28,-20.75 -17.49,-31.68l-4.22 -7.86 -1.12 1.98zm282.43 -22c2.42,6.2 0.16,16.52 -2.25,21.8 -7.91,17.29 -19.26,14.7 -31.53,6.13 -9.56,-6.67 -8.39,-3.88 -17.4,-8.1 -2.26,-1.06 -2.24,-0.88 -3.08,-3.47 -2.14,-6.53 0.05,-9.39 2.91,-14.51 2.53,-4.53 6.68,-15.49 1.44,-19 -1.35,-0.91 -3.08,-1.32 -3.69,-2.86 -0.56,-1.39 -0.4,-3.91 1.16,-4.26 2.23,-0.49 9.3,-0.53 12.02,-0.7 7.61,-0.47 16.56,-1.43 24.03,-1.37 3.29,12.3 -0.28,14.67 -0.43,27.87 4.38,-0.04 5.28,0.03 8.31,-2.02 2.05,-1.4 6.37,-0.57 8.51,0.49zm5.7 -25.57c-5.13,0.28 -11.22,-2.45 -14.37,-7.3 -5.51,-8.51 -10.63,-10.07 -22.29,-10.42 -4.04,-0.1 -6.12,-0.24 -7.91,-3.11 -3.68,-5.85 -0.95,-10.89 3.35,-14.97 16.51,-15.71 44.52,11.47 41.22,35.8zm-18.57 -46.47c-1.84,-1.1 -9.09,-7.22 -4.38,-9.71 12.28,-6.51 39.51,30.67 43.46,42.04 8.13,23.38 5.28,35.28 -3.64,56.08 -4.82,11.26 -22.73,48.87 -32.33,54.39 -3.38,1.92 -11.35,0.9 -15.5,0.39 -7.98,-0.99 -22.23,-3.63 -26.04,-8.48 0.83,-3.43 5.75,-7.37 8.3,-9.1 9.9,-6.7 19.96,-2.52 29.77,-5.22 5.69,-1.56 11.58,-6.73 15.01,-10.86 1.29,-1.54 2.66,-2.99 3.96,-4.78 19.65,-26.93 22.56,-63.75 1.56,-90.29 -2.57,-3.25 -5.56,-5.91 -8.98,-8.51 -5.16,-3.97 -7.71,-3.83 -11.19,-5.95zm-73.86 -27.78c-16.31,1.04 -30.07,1.35 -39.41,-8.33 -3.01,-3.12 -3.45,-2.91 -1.41,-7.74 1.23,-2.94 2.93,-5.14 4.92,-7.09 7.1,-6.94 14.71,-3.15 28.82,-19.65 1.06,-1.24 2.06,-1.9 3.15,-3.03 3.16,-3.29 5.98,-5.52 10.96,-6.93 5.44,-1.53 16.78,-1.73 22.57,-0.91 12.03,1.72 23.96,8.65 33.31,15.16 2.54,1.77 4.44,3.4 6.72,5.32 1.45,1.24 1.74,1.45 3.19,3 0.97,1.05 1.97,1.72 3,2.82 3.39,3.57 8.01,10.2 8.55,15.69 0.18,1.73 0.27,4.47 -1.19,5.23 -2.52,1.3 -12.5,2.08 -15.79,1.99 -13.59,-0.37 -26.53,-5.87 -37.45,-10.55 -13.71,-5.86 -24,-11.01 -37.94,-6.49 -0.41,4.86 2.29,7.64 4.05,10.88 1.76,3.25 3.26,6.6 3.95,10.63zm282.81 13.91c5.92,-0.94 11.85,-2.26 17.92,-3.19 19.36,-2.97 33.29,-3.7 52,-11.44 9.36,-3.87 20.28,-9.39 27.86,-14.4 7.78,-5.16 18.27,-16.06 24.34,-17.81 -1.19,25.35 -14.84,55.92 -29.13,74.97 -6.57,8.78 -7.01,13.08 -8.63,26.02 -2.3,18.54 -5.78,46.26 -2.42,64.53 1.89,10.28 5.77,16.92 16.07,18.58 6.06,0.97 27.78,0.35 31.12,3.03 0.69,0.64 0.68,1.13 0.95,2.74 5.68,31.94 -35.74,21.43 -53.57,16.43 -13.44,-3.78 -12.6,-3.11 -13.69,-8.23 -0.39,-1.85 -0.73,-3.94 -1,-5.92 -2.3,-17.26 0.15,-36.19 2.14,-53.25 1.2,-10.31 5.24,-44.91 1.56,-53.35l-8.44 0.18c-0.79,4.64 -1.96,9.39 -2.7,14.33 -2.19,14.75 -3.71,31.22 -4.97,46.09 -1.79,21 -3.32,42.1 -5.01,63.14 -2.1,0.73 -6.37,3.23 -8.69,4.43 -2.86,1.46 -5.54,2.83 -8.5,4.23 -15.91,7.49 -43.78,18.88 -61.4,15.23 -1.9,-0.4 -3.71,-0.74 -4.69,-1.85 -0.88,-0.99 -1.87,-2.69 -1.87,-4.56 -0.01,-10.03 29.01,-22.71 37.72,-26.66 5.84,-2.63 11.93,-5.42 17.48,-8.39 15.33,-8.19 11.97,-10.26 14.19,-24.76 2.82,-18.38 6.26,-37.84 8.68,-55.84 0.51,-3.86 1.16,-8.3 1.01,-12.27 -0.38,-10.37 -11.32,-9.92 -19.45,-19.29 -2.41,-2.78 -3.77,-3.61 -6.41,-6.72l-6.07 -6.68c-3.64,-4.45 -7.82,-11.02 -6.4,-19.32zm-46.64 -64.87c1.41,-12.07 2.61,-18.66 14.53,-20.45 11.34,-1.68 19.92,3.34 24.45,9.39 2.36,3.17 4.86,8.25 3.79,13.42 -3.11,15.04 -7.31,-3.65 -39.26,8.08 -25.74,9.45 -18.6,18.68 -31.86,37.73 -4.19,6.01 -11.92,11.02 -21.96,12.66 -5.28,0.86 -11.04,0.6 -15.86,-0.97 -5.19,-1.69 -7.33,-4.07 -9.87,-7.09 3.12,-5.15 14.15,-4.17 17.18,-9.11 -2.9,-3.61 -13.18,-6.65 -18.5,-9.42 -1.77,-0.92 -1.57,-0.78 -1.81,-2.96 -1.85,-16.91 -0.09,-24.26 18.13,-22.41 11.06,1.11 23.07,3.51 34.23,1.1 9.84,-2.11 17.36,-8.35 26.81,-9.97zm138.4 -57.84c21.05,1.26 38.96,47.22 22.72,67.4 -3.64,4.52 -8.52,8.51 -13.59,12.27 -12.84,9.57 -39.84,26 -54.54,13.32 -3.81,-3.3 -8.04,-9.83 -11.56,-14.33 -7.2,-9.25 -19.81,-13.34 -16.01,-21.34 1.31,-2.74 4.25,-4.41 7.82,-4.94 5.03,-0.74 16.52,2.56 21.65,3.73 32.19,7.4 34.01,-12.86 37.65,-36.26 0.56,-3.52 1.23,-7.29 2.13,-10.6 0.49,-1.75 0.97,-3.36 1.6,-4.97l1.75 -3.79c0.04,-0.07 0.15,-0.11 0.18,-0.24 0.04,-0.15 0.13,-0.17 0.2,-0.25zm-320.16 47.66c8.78,-6.63 24.41,-3.8 36.34,-2.95 6.05,0.42 12.1,1.42 16.51,4.18 4.55,2.84 7.46,6.34 11.48,9.29 3.8,2.81 8.68,5.21 13.34,7.42 4.16,1.96 10.8,5.16 12.95,7.82 6.73,8.34 9.83,20.6 1.11,29.21 -7.12,7.02 -19.3,9.21 -32.08,9.4 -27.64,0.39 -7.09,-14.42 -40.31,-42.73 -8.26,-7.05 -17.88,-9.86 -19.34,-21.64zm-163.63 29.7c-1.93,-9.07 -0.88,-29.58 2.7,-39.03 4.77,-12.6 16.79,-13.81 27.09,-5.68l7.14 7.06c1.25,1.37 2.23,2.46 3.44,3.84 1.28,1.45 2.25,2.02 3.34,3.66 -2.31,7.45 -8.23,5.2 -9.81,11.54 9.53,1.29 25.13,-1.63 38.06,1.31 6.41,1.46 9.65,4.96 5,10.64 -2.31,2.8 -7.43,5.9 -11.49,7.8 -11.52,5.39 -18.53,6.55 -32.78,5.19 -12.11,-1.14 -21.77,-3.13 -32.69,-6.33zm-7.7 -10.84c-3.18,2.25 -9.42,3.36 -13.25,1.54 -5.61,-2.67 -9.68,-13.59 -14.68,-18.1 -2.08,-1.87 -5.43,-6.01 -7.34,-9.05 -7.89,-12.48 -0.56,-16.2 9.64,-8.18 8.87,6.98 13.55,4.96 26.04,6.74l-0.41 27.05zm244.54 -39.46c7.86,-0.96 18.24,0.44 25.81,1.94 9.04,1.78 14.09,3.34 20.48,7.9 6.39,4.55 10.12,6.67 15.93,12.49 9.97,9.98 2.65,12.69 -6.48,11.2 -8.14,-1.34 -16.37,-2.56 -24.51,-3.88 -10.98,-1.79 -13.06,-1.14 -22.55,-5.88 -5.06,-2.54 -14.86,-7.48 -17.88,-10.55 -1.5,-1.53 -4.47,-8.17 -1.47,-9.85 0.77,-0.44 1.74,-0.51 2.68,-0.94 3.34,-1.5 2.25,-1.74 7.99,-2.43zm64.64 13.77c1.79,-7.44 12.75,-11.08 19.58,-12.4 8.6,-1.65 21.06,-2.17 30,-1.53 -1.12,9.18 -9.82,17.3 -18.58,19.1 -5.37,1.1 -12.14,1.13 -17.52,0.25 -6.86,-1.12 -9.03,-2.71 -13.48,-5.42zm150.33 -38.55c30.38,-2.91 15.35,34.76 10.27,37.81 -5.68,3.42 -22.37,-0.54 -30.05,-0.31 -3.8,0.1 -3.94,0.95 -5.91,2.62 -11.26,9.57 -33.01,7.06 -38.05,-6.96 -3.63,-10.05 6.7,-15.29 13.29,-18.19 11.21,-4.95 38.49,-13.82 50.45,-14.97zm-407.42 -13.53c7.97,-0.38 25.15,-0.54 32.48,0.83 10.09,1.91 14.19,7.41 15.56,17.96 1.19,9.25 1.11,22.17 -1.19,30.79 -2.38,8.92 -7.66,15.48 -18.46,15.05 -20.89,-0.81 -31.75,-13.54 -37.75,-29.62 -2.54,-6.81 -2.53,-12.47 -8,-17.15 -4.58,-3.94 -3.84,-11.56 -2.89,-12.8 0.62,-0.81 4.26,-2.31 5.59,-2.78 4.5,-1.54 9.57,-2.03 14.66,-2.28zm404.7 -28.92c2.26,0.99 23.3,20.36 -4.79,32.96 -24.52,11 -73.49,14.19 -52.41,-5.04 4.63,-4.23 10.13,-8.22 17.09,-11.33l30.21 -12.42c2.3,-0.92 8.22,-3.06 9.9,-4.17zm-511.41 -22.59c13.03,-2.61 15.57,14.63 18.28,25.33 1.53,6.04 3.89,10.7 5.83,16.39 1.05,3.08 1.81,6.06 1.79,9.59 -0.01,2.11 -0.62,8.03 -2.1,8.92 -1.46,0.88 -7.94,1.14 -9.39,-0.08 -1.37,-1.16 -2.71,-5.16 -3.61,-7.31 -2.21,-5.3 -4.93,-9.75 -6.99,-15.25 -4.01,-10.67 -7.71,-25.74 -3.81,-37.59zm249.85 38.96c-3.76,1.52 -7.17,4.35 -10.72,6.32 -13.26,7.4 -28.17,5.84 -43.08,2.98 -18.24,-3.5 -35.4,-9.77 -51.6,-16.13 -22.21,-8.71 -80.67,-35.6 -67.56,-64.2 8.67,-18.91 88.08,-16.9 111.44,-3 6.97,4.15 10.27,11.62 15.57,18.31 15.59,19.62 48.14,22.33 45.95,55.72zm99.08 -82.15c-0.61,-6.18 -0.24,-10.71 2.98,-14.81 8.07,-10.29 27.77,-12.82 40.8,-13.01 24.23,-0.34 25.6,-2.84 40.25,-14.15 13.22,-10.21 23.23,-13.07 38.74,-2.64l7.75 6.1c4.91,4.72 10.45,11.26 14.87,16.45 1.32,1.54 2.94,3.61 4.2,4.92 9.8,10.1 9.07,10.72 21.48,14.6 1.89,0.6 5.16,1.56 6.74,2.37 1.8,0.93 1.51,5.23 1.46,7.24 -0.55,30.94 -45.29,62.37 -73.81,70.42 -13.67,3.85 -31.2,-0.63 -43.07,-7.8 -2.1,-1.27 -3.74,-2.54 -5.32,-3.79 -1.77,-1.38 -3.29,-2.32 -2.26,-5.53 4.16,-13.06 20.41,-16.57 30.68,-23.63 2.01,-1.39 8.38,-6.36 7.27,-10.15 -13.59,-1.94 -25.19,19.63 -50.93,15.17 -9.53,-1.64 -16.27,-5.05 -23.34,-10.52 -2.7,-2.08 -12.44,-15.21 -14.1,-19.92 3.82,-0.62 8.78,-2.71 6.82,-7.39 -1.83,-4.42 -6.86,-4.46 -11.21,-3.93zm-292.7 135.75c-3.4,0.67 -6.04,1.78 -9.82,0.45 -2.92,-1.05 -4.97,-3.14 -6.38,-4.92 -9.43,-11.94 -10.34,-40.77 -10.92,-55.72 -0.59,-15.11 -6.66,-49.37 0.18,-60.99 1.56,-2.62 3.26,-3.45 6.39,-4.94 3.02,-1.45 4.55,-2.59 6.36,-4.57 10,-11 -8.95,-40.22 52.26,-36.15 21.45,1.42 37.28,-4.44 62.44,1.22 7.97,1.8 10.8,2.37 10.16,12.15 -12.25,9.63 -27.43,2.3 -42.22,0.25 -14.42,-2.01 -32.6,-2.43 -43.6,4.75 -4.53,2.95 -6.85,5.65 -10.11,9.56l-2.95 3.24c-3.52,3.86 -9.13,8.13 -11.5,14.01 -5.69,14.19 17.06,15.96 18.76,30.49 -2.18,2.6 -6.9,4.46 -11.5,4.83 -6.12,0.51 -9.75,-0.61 -12.47,3.91 -5.48,9.11 -4.77,49.21 -2.4,59.26 2.99,12.78 10.87,8.34 7.32,23.17zm-44.73 -218.89c22.95,-2.61 54.04,10.64 70.07,19.85 4.82,2.77 9.81,5.43 14.14,8.45 1.16,0.8 2.45,1.61 3.5,2.34 3.58,2.49 3.2,8.26 -1.34,10.65 -7.93,4.15 -31.16,1.74 -41.14,0.96 -8.86,-0.69 -12.66,0.65 -16.38,6 -7.42,10.66 -8.45,23.59 -24.58,12.99 -4.63,-3.03 -9.11,-6.49 -12.75,-9.84 -7.49,-6.86 -15.06,-18.69 -14.99,-30.08 0.08,-14.43 9.85,-19.79 23.47,-21.32zm348.36 -14.88c1.47,-0.38 16.39,0.09 19.37,0.1 15.13,0.11 43.21,-0.21 36.28,21.37 -0.75,2.29 -2.62,2.62 -6.36,3.85 -19.12,6.25 -50.9,0.68 -65.9,4.05 -5.65,1.27 -10.01,3.26 -15.57,4.5 -8.79,1.95 -28.2,1.53 -33.77,-3.79 -1.25,-1.2 -2.84,-5.59 -1.61,-7.54 4.4,-6.97 13.45,-8.18 21.07,-8.82 11.66,-0.98 20.63,-4.85 31.48,-8.62 4.69,-1.63 10.33,-3.91 15.01,-5.1zm29.03 -9.23c1.03,-11.03 4.07,-13.77 14.31,-15.82 8.37,-1.69 17.84,-3.71 26.68,-3.2 12.78,0.72 39.56,5.24 50.08,9.64 7.7,3.2 10.85,7.59 19.39,10.49 7.67,2.6 15.38,4.34 23.32,6.55 16.44,4.56 33.92,8.89 29.58,28.62 -23.62,3.79 -65.58,-5.54 -87.75,-11.24 -7.91,-2.04 -25.23,-4.32 -30.35,-7.56 -6.65,-4.2 -2.68,-10.45 -11.4,-13.75 -6.37,-2.42 -15.9,-2.35 -22.76,-2.54 -4.22,-0.1 -7.23,-0.68 -11.1,-1.19zm129.9 167.93c1.24,-4.3 11.41,-18.7 15.35,-30.26 3.67,-10.76 1.63,-12.58 2.86,-19.68 1.15,-6.67 19.6,-22.09 27.75,-40.43 15.8,-35.51 2.25,-78.06 -26.81,-101.21 -3.14,-2.51 -6.09,-5.07 -9.75,-7.37 -15.65,-9.85 -31.73,-15 -51.31,-16.5 -27.41,-2.1 -50.12,3.55 -72.93,17.13 -9.5,5.65 -17.44,12.78 -25.85,19.69 -11.06,9.07 -12.57,7.9 -23.61,10.27 -14.98,3.19 -29.79,7.86 -43.84,12.99 -8.11,2.97 -23.43,9.34 -30.6,14.58 -3.61,2.63 -4.88,12.9 -2.27,17.74 3.72,6.94 31.58,7.2 37.69,7.33 5.53,0.12 16.84,-0.13 21.69,1.04 2.79,10.29 -0.92,18.48 -3.9,27.11 -3.75,10.86 -3.11,16.11 0.88,26.56 3.11,8.15 7.22,14.99 11.45,21.33 2.32,3.48 4.39,6.23 7.04,9.37 5.17,6.1 9.87,11.29 16.89,15.54 9.64,5.84 13.44,8.52 16.41,15.47 1.02,4.04 5.93,13.46 9.4,15.92 4.88,3.48 9.7,6.28 15.27,8.78 9.46,4.27 16.53,5.12 27.91,3.96l-1.13 22.64c-2.32,2.2 -11.93,6.15 -15.93,7.64 -12.25,4.55 -25.64,6.27 -38.77,7.89 -24.24,2.98 -15.64,11.37 -25.03,8.27 -8.84,-2.94 -18.1,-5.72 -27.27,-7.68 -13.18,-2.84 -28.83,1.09 -42.61,1.82 -8.12,0.44 -15.04,-0.26 -22.94,-0.27 -10.76,-0.03 -23.76,9.02 -32.96,13.89 -16.19,8.57 -18.77,9.69 -37.73,9.27 -4.12,-0.1 -19.11,-0.2 -21.85,-1.45 -10.36,-4.73 -5.35,-33.13 -3.3,-37.52 3.47,-0.53 13.41,0.81 17.5,1.16 5.79,0.47 11.63,0.82 17.46,0.97 11.39,0.29 23.72,-0.26 34.34,-2.78 4.71,-1.13 9.86,-2.81 13.74,-4.87 13.74,-7.25 19.9,-20.97 15.16,-36.93 -6.87,-23.17 -19.21,-25.7 -36.5,-37.81 -7.57,-5.31 -18.42,-14.59 -25.8,-20.86 -2.77,-2.34 -7.88,-5.53 -8.49,-9.7 -0.49,-3.42 0.47,-4.51 -1.05,-8.08 -2.9,-6.78 -11.38,-14.97 -17.25,-19.91 -5.8,-4.9 -13.94,-11.03 -23.71,-13.46 -12.04,-2.97 -19.29,-1.11 -29.86,-7.31 -3.62,-2.13 -7.37,-5.44 -10.7,-7.87 -18.69,-13.65 -33.81,-25.71 -58.59,-33.96 -18.43,-6.14 -44.48,-9.97 -62.41,-0.98 -20.3,10.17 -17.34,30.22 -8.3,51.64 3.86,9.14 9.04,16.84 16.45,20.73 10.29,5.43 19.9,2.32 18.05,18.32 -2.64,22.61 -32.63,3.27 -27.89,45.07 3.46,30.44 12.38,39.71 16.44,57.5 2.26,9.9 1.65,24.65 1.97,35.37 0.35,12.01 0.83,24.02 0.94,36.07 0.05,6.06 0.03,12.19 -0.23,18.23 -0.18,4.65 0.54,4.88 -2.42,7.17 -8.06,6.22 -16.82,14.97 -22.59,23.3 -9.92,14.28 -17.81,32.7 -20.1,54.25 -1.22,11.55 -1,23.95 0.75,35.27 0.8,5.2 1.93,10.45 3.49,15.12 1.93,5.77 3.49,7.59 5.84,12.39 0.38,-0.48 0.52,0.01 0.43,-1.28 0.89,5.88 5.15,10.92 7.69,15.37 2.95,5.17 4.37,11.59 4.09,18.72 -3.42,1.84 -8.91,3.72 -12.81,5.33 -6.74,2.82 -34.03,14.42 -38.83,15.87l0.04 12.32c13.75,3.51 23.75,3.73 38.6,3.29 12.83,-0.38 27.41,-1.65 39.8,0.62 49.62,9.04 175.21,36.42 219.09,31.28 1.13,-3.86 -1.34,-9.51 -0.73,-12.28 1.61,-2.31 15.49,-4.59 19.37,-5.49 6.64,-1.57 12.8,-3.51 19.35,-5.1 9.31,-2.23 32.89,-6.78 36.65,-12.66 -6.37,-8.87 -41.12,-10.89 -51.14,-20.4 1.61,-7.74 8.02,-11.52 12.08,-18.14 3.93,-6.44 7.66,-11.85 11.46,-18.4 7.01,-12.08 14.74,-26.52 16.76,-43.09 2.46,-20.18 -2.21,-34.77 -11.37,-47.7 -2.21,-3.12 -4.5,-5.54 -6.77,-8.18l-5.55 -5.74c-4.37,-5.05 -12.94,-10.31 -14.39,-19.07 2.2,-2.29 16.2,-4.83 20.64,-5.16 23.56,-1.77 27.08,11.17 63.47,12.94 15.21,0.74 31.81,-1.33 42.5,-8.63 14.23,-9.71 12.25,-17.24 13.66,-37.71 6.45,-0.71 17.45,-2.14 17.33,7.23 -0.09,7.91 -2.83,14.2 -2.15,23.34 1.55,20.69 10.69,20 29.87,20.85 2.28,4.1 4.03,8.2 6.22,12.69 2.1,4.27 5.15,8.63 7.86,11.09 5.21,4.77 15.19,10.77 24.24,13.28 0.84,13.58 -4.01,35.19 -6.41,48.56 -1.46,8.1 -2.32,16.07 -3.37,24.32 -1.36,10.54 -3.14,12.47 -10.5,16.87 -11.25,6.73 -25.04,11.81 -37.18,17.83 -12.2,6.03 -23.86,13.95 -21.85,32.69 2.59,2.54 10.44,6.45 14.89,7.58 7.09,1.8 12.73,0.65 19.31,-1.33 5.54,-1.67 10.98,-3.91 16.34,-5.89 5.49,-2.03 10.79,-3.94 16.05,-6.17 9.95,-4.23 21.29,-9.32 32.01,-12.43 8.67,-2.52 10.45,-1.87 17.97,1.4 16,6.96 40.4,9.99 56.36,3.7 9.65,-3.81 18.17,-12.55 18.76,-25.84 0.27,-6.13 -1.62,-13.76 -4.92,-17.45 -8.88,-9.96 -27.39,0.52 -37.45,-6.26 -12.35,-8.33 -4.91,-43.4 -3.2,-55.95 1.47,-10.77 2.95,-29.07 6.37,-38.09 2.13,-5.6 5.46,-9.2 8.39,-13.84 19.92,-31.62 32.84,-90.92 17.74,-124.37 -5.05,-11.2 -11.05,-18.7 -20.25,-24.2 -7.12,-4.26 -16.43,-6.29 -24.63,-8.89 -3,-0.95 -5.51,-2.36 -7.89,-3.13 0.33,-11.63 4.04,-18.54 -10.44,-26.2z"/>
  <path class="fil2" d="M207.02 499.25l-1.63 37.86 20.76 5.88c0.81,-1.48 2.09,-2.88 3.11,-4.48 11.79,-18.42 1.13,-26.45 -1.09,-40.73 10.9,0.54 27.28,8.24 35.43,15.57 17.15,15.41 25.93,53.06 20.29,77.99 -3.03,13.4 -9.86,22.85 -18.88,31.75 -1.83,1.8 -4.84,3.85 -7.27,5.5 -18.72,12.7 -51.68,16.69 -71.26,7.07 -5.69,-2.79 -10.68,-6.62 -13.23,-12.27 -3.01,-6.64 0,-5.72 -4.33,-8.42 -15.38,-9.61 -15.42,-27.44 -16.01,-47.69 1.53,0.13 2.87,0.33 4.16,0.86 1.14,0.47 1.77,1.2 2.86,1.5 5.56,1.55 11.42,-3.98 13.07,-4.66 8.02,-3.28 30.67,-0.88 42.82,-1.48 -0.41,3.87 -1.93,12.14 -4.37,14.06 -1.92,1.5 -10.04,1.18 -13.97,3.99 0.21,2.97 1.86,7.1 3.39,8.38 5.43,4.56 16.37,-5.15 29.21,-2.62 11.01,2.17 22.63,14.16 34.01,11.52 1.75,-0.41 2.86,-0.61 3.61,-2.19 6.54,-13.8 -9.51,-16.25 -19.91,-17.58 -14.57,-1.86 -11.34,-4.19 -13.95,-8.96 -2.64,-4.82 -12.3,-5.23 -16.02,-6.66 1.52,-2.5 5.18,-3.99 6.3,-4.86l0.23 -6.26c-6.34,-1.05 -11.14,-1.96 -18.05,-2.38 -6.26,-0.38 -12.46,-0.6 -18.57,-1.48 -3.95,-0.56 -14.33,-2.56 -17.71,-1.41 -3.96,1.34 -7.71,4.24 -14.77,5.48 1.3,-20.77 15.53,-38.75 31.4,-48.23 5.17,-3.09 12.93,-6.18 20.37,-5.05zm-71.77 107.58l1.11 -1.98 4.21 7.86c5.22,10.93 10.28,22.18 17.5,31.68 1.96,2.58 6.22,7.74 8.7,9.87 14.25,12.27 28.8,17.98 50.13,17.7 14.36,-0.18 29.45,-3.45 42.04,-7.57 77.16,-25.19 74.15,-150.67 7.68,-187.59 -47.69,-26.49 -109.52,-11.19 -128.67,43.28 -7.43,21.11 -9.26,42.31 -5.37,64.54 0.68,3.93 0.55,7.36 1.3,11.07 0.86,4.29 1.07,6.72 1.37,11.14z"/>
  <path class="fil2" d="M566.4 258.99c2.39,-0.47 4.53,-0.23 6.8,0.5 1.91,0.63 3.34,2.05 3.89,4.15 2.27,8.73 -20.3,9.16 -19.7,2.48 0.28,-3.16 4.96,-6.34 9.01,-7.13zm-58.07 11.27c4.35,-0.53 9.38,-0.49 11.21,3.93 1.96,4.68 -3,6.77 -6.82,7.39 1.66,4.71 11.4,17.84 14.1,19.92 16.34,12.63 29.39,27.48 38.58,34.66 1.58,1.25 3.22,2.52 5.32,3.79 11.87,7.17 29.4,11.65 43.07,7.8 28.52,-8.05 73.26,-39.48 73.81,-70.42 0.05,-2.01 0.34,-6.31 -1.46,-7.24 -1.58,-0.81 -4.85,-1.77 -6.74,-2.37 -12.41,-3.88 -11.68,-4.5 -21.48,-14.6 -1.26,-1.31 -2.88,-3.38 -4.2,-4.92 -4.42,-5.19 -9.96,-11.73 -14.87,-16.45l-7.75 -6.1c-15.51,-10.43 -25.52,-7.57 -38.74,2.64 -14.65,11.31 -16.02,13.81 -40.25,14.15 -13.03,0.19 -32.73,2.72 -40.8,13.01 -3.22,4.1 -3.59,8.63 -2.98,14.81z"/>
  <path class="fil2" d="M613.75 498.91c-1.42,8.31 2.76,14.87 6.4,19.33l6.07 6.68c2.64,3.11 3.99,3.94 6.4,6.72 8.15,9.37 19.07,8.92 19.46,19.29 0.15,3.96 -0.5,8.41 -1.01,12.27 -2.42,18 -5.86,37.46 -8.68,55.83 -2.22,14.5 1.15,16.58 -14.19,24.78 -5.55,2.96 -11.64,5.75 -17.47,8.39 -8.72,3.94 -37.74,16.61 -37.73,26.65 0,1.86 0.99,3.57 1.86,4.56 0.98,1.11 2.8,1.45 4.7,1.85 17.62,3.65 45.48,-7.74 61.4,-15.24 2.96,-1.39 5.64,-2.76 8.5,-4.23 2.31,-1.18 6.58,-3.69 8.69,-4.42 1.69,-21.03 3.21,-42.14 5,-63.14 1.28,-14.87 2.79,-31.34 4.98,-46.09 0.74,-4.95 1.91,-9.7 2.71,-14.34l8.43 -0.17c3.68,8.43 -0.36,43.04 -1.56,53.34 -1.99,17.07 -4.44,35.99 -2.14,53.26 0.27,1.98 0.61,4.07 1,5.92 1.09,5.11 0.25,4.45 13.69,8.22 17.83,5.01 59.26,15.52 53.58,-16.41 -0.29,-1.61 -0.27,-2.11 -0.96,-2.75 -3.34,-2.68 -25.06,-2.06 -31.12,-3.03 -10.3,-1.66 -14.18,-8.3 -16.07,-18.57 -3.37,-18.28 0.11,-45.99 2.43,-64.53 1.62,-12.95 2.05,-17.26 8.63,-26.03 14.27,-19.05 27.93,-49.62 29.12,-74.97 -6.06,1.75 -16.55,12.65 -24.34,17.8 -7.58,5.02 -18.5,10.54 -27.87,14.41 -18.7,7.73 -32.63,8.48 -51.99,11.43 -6.07,0.93 -12,2.25 -17.92,3.19z"/>
  <path class="fil2" d="M409.25 352.41c2.2,-33.38 -30.37,-36.1 -45.94,-55.72 -5.31,-6.68 -8.62,-14.16 -15.58,-18.31 -23.35,-13.9 -102.77,-15.91 -111.44,3.01 -13.1,28.59 45.35,55.47 67.56,64.19 16.21,6.36 33.36,12.64 51.61,16.13 14.91,2.86 29.81,4.42 43.07,-2.97 3.55,-1.98 6.96,-4.81 10.72,-6.33z"/>
  <path class="fil1" d="M184.31 626.2c-0.58,-5.83 -1.23,-12.36 1.59,-17 5.72,-9.44 25.57,-21.8 35.87,-3.37 7.51,13.43 1.26,33.94 -24.05,26.23 -3.66,-1.11 -10.89,-3.89 -13.41,-5.86zm-14.52 -13.31c-3.44,-18.53 -9.95,-13.37 -10.71,-27.7 -0.24,-4.49 -0.34,-5.55 1.68,-5.87 2.03,-0.32 5.58,0.06 6.82,-0.19 1.43,-0.3 2.97,-2.35 4.51,-3.11 10.96,4.47 12.85,20.99 7.86,31.96 -0.7,1.52 -1.63,4.11 -3.17,4.55 -1.19,0.34 -5.55,0.35 -6.99,0.36zm56.36 -69.9l-20.76 -5.88 1.63 -37.86c-7.44,-1.13 -15.2,1.96 -20.37,5.05 -15.87,9.48 -30.1,27.46 -31.4,48.23 7.06,-1.24 10.81,-4.14 14.77,-5.48 3.38,-1.15 13.76,0.85 17.71,1.41 6.11,0.88 12.31,1.1 18.57,1.48 6.91,0.42 11.71,1.33 18.05,2.38l-0.23 6.26c-1.12,0.87 -4.78,2.36 -6.3,4.86 3.72,1.43 13.38,1.84 16.02,6.66 2.61,4.77 -0.62,7.1 13.95,8.96 10.4,1.33 26.45,3.78 19.91,17.58 -0.75,1.58 -1.86,1.78 -3.61,2.19 -11.38,2.64 -23,-9.35 -34.01,-11.52 -12.84,-2.53 -23.78,7.18 -29.21,2.62 -1.53,-1.28 -3.18,-5.41 -3.39,-8.38 3.93,-2.81 12.05,-2.49 13.97,-3.99 2.44,-1.92 3.96,-10.19 4.37,-14.06 -12.15,0.6 -34.8,-1.8 -42.82,1.48 -1.65,0.68 -7.51,6.21 -13.07,4.66 -1.09,-0.3 -1.72,-1.03 -2.86,-1.5 -1.29,-0.53 -2.63,-0.73 -4.16,-0.86 0.59,20.25 0.63,38.08 16.01,47.69 4.33,2.7 1.32,1.78 4.33,8.42 2.55,5.65 7.54,9.48 13.23,12.27 19.58,9.62 52.54,5.63 71.26,-7.07 2.43,-1.65 5.44,-3.7 7.27,-5.5 9.02,-8.9 15.85,-18.35 18.88,-31.75 5.64,-24.93 -3.14,-62.58 -20.29,-77.99 -8.15,-7.33 -24.53,-15.03 -35.43,-15.57 2.22,14.28 12.88,22.31 1.09,40.73 -1.02,1.6 -2.3,3 -3.11,4.48z"/>
  <path class="fil1" d="M627.17 739.34c-0.9,6.65 -13.16,11.99 -19.71,17.07 -13.2,10.24 -13.86,5.29 -24.7,-0.03 -21.42,-10.51 -50.06,1.88 -64.49,-5.1 -10.75,-5.2 11.73,-12.45 16.79,-14.08 4.63,-1.5 9.32,-2.86 14.12,-4.07 4.14,-1.05 10.69,-2.97 14.94,-3.27 9.93,-0.69 19.02,6.31 28.91,7.86 5.92,0.93 11.51,0.54 17.5,0.26 6.92,-0.32 10.28,0.25 16.64,1.36zm-11.97 27.3c2.56,-7.42 25.91,-19.47 36.71,-22.26 14.91,-3.85 43.14,1.67 52.33,-6.33 7.22,-6.28 3.79,-10.17 13.46,-16.06 2.65,-1.62 36.22,-17.05 40.61,-18.02 7.58,-1.67 19.15,-0.2 24.84,-4.37 0.79,-12.27 -28.71,-9.38 -37.4,-6.39 -25.03,8.62 -43.02,29.21 -65.02,31.15 -8.74,0.77 -13.39,-0.81 -20.19,-3.86 -6.78,-3.03 -11.33,-4.54 -19.89,-4.4 -30.11,0.47 -63.15,-2.81 -91.49,4.22 -18.75,4.65 -34.14,12.87 -49.51,22.64 -3.97,2.52 -10.57,7.3 -15,8.97l-1.15 11.1c12.82,0.87 25.79,2.31 38.72,3.21 6.04,0.42 35.06,1.2 37.85,3.68 0.34,2.8 -3.66,8.67 -3.67,13.48 3.91,2.45 14.68,4.32 20.07,4.86 13.39,1.36 30.77,-0.1 43.17,-5.1 4.56,-1.84 12.59,-5.73 15.1,-9.61 -3.14,-2.36 -4.82,-2.98 -9.73,-3.69 -3.16,-0.45 -7.98,-1.25 -9.81,-3.22z"/>
  <path class="fil1" d="M174.1 749.69c-0.34,-10.75 5.63,-12.3 13.72,-15.42 10.41,-4 13.59,-0.42 23.52,1.46 7.32,1.39 42.91,8.6 46.33,11.24 -0.94,1.72 -5.29,6.53 -6.66,7.87 -9.29,9.04 -19.53,10.27 -32.77,8.3 -11.78,-1.76 -24.44,-3.46 -35.28,-8.12 -3.84,-1.64 -6.13,-3.8 -8.86,-5.33zm190.39 -4.91c-17.66,17.46 -97.03,12.13 -96.79,-9.47 0.22,-18.67 35.89,-6.9 47.3,-4.08 8.72,2.16 17.97,3.28 27.16,4.51 7.53,1.01 21.18,2.37 22.33,9.04zm-212.46 1.82c0,14.39 10.12,18.93 22.17,21.59 6.01,1.32 12,2.38 17.7,4.15 12.09,3.76 33.36,8.59 46.14,8.41 5.55,-0.08 4.87,0.17 7.15,-3.68 2.68,-4.49 4.84,-9.75 7.52,-14.34 1,-1.7 1.2,-1.78 3.53,-1.92 1.72,-0.11 3.38,-0.18 5.1,-0.21 26.73,-0.43 65.59,12.2 88.1,3.77 14.6,-5.47 48.99,-24.64 51.78,-35.27 -19.14,-3.27 -42.46,5.86 -71.37,-0.7 -10.59,-2.4 -18.97,-6.57 -29.86,-8.77 -43.11,-8.68 -30.82,15.39 -61.47,9.76 -11.35,-2.09 -21.61,-3.92 -33.26,-5.4 -15.08,-1.91 -19.79,0.92 -29.86,7.34l-23.37 15.27z"/>
  <path class="fil2" d="M215.62 406.01c3.55,-14.83 -4.31,-10.39 -7.31,-23.17 -2.37,-10.05 -3.08,-50.15 2.4,-59.26 2.72,-4.52 6.36,-3.4 12.48,-3.9 4.59,-0.38 9.31,-2.24 11.5,-4.84 -1.71,-14.53 -24.47,-16.3 -18.77,-30.5 2.36,-5.87 7.97,-10.14 11.5,-14l2.96 -3.24c3.25,-3.92 5.57,-6.61 10.1,-9.57 11,-7.17 29.18,-6.75 43.6,-4.74 14.79,2.05 29.98,9.37 42.23,-0.25 0.63,-9.78 -2.21,-10.35 -10.17,-12.15 -25.16,-5.66 -40.99,0.2 -62.44,-1.22 -61.21,-4.06 -42.26,25.15 -52.27,36.15 -1.8,1.98 -3.33,3.12 -6.36,4.57 -3.12,1.5 -4.82,2.32 -6.37,4.93 -6.85,11.62 -0.78,45.89 -0.19,60.99 0.59,14.96 1.49,43.79 10.92,55.74 1.4,1.78 3.46,3.87 6.38,4.91 3.77,1.34 6.43,0.22 9.81,-0.45z"/>
  <path class="fil2" d="M548.3 163.01c3.87,0.51 6.88,1.09 11.08,1.19 6.87,0.18 16.4,0.12 22.78,2.54 8.7,3.3 4.75,9.56 11.39,13.75 5.12,3.24 22.44,5.52 30.35,7.56 22.17,5.71 64.13,15.02 87.75,11.24 4.34,-19.73 -13.14,-24.06 -29.57,-28.63 -7.94,-2.21 -15.66,-3.94 -23.33,-6.54 -8.54,-2.89 -11.69,-7.28 -19.39,-10.49 -10.52,-4.4 -37.3,-8.93 -50.08,-9.65 -8.84,-0.49 -18.31,1.53 -26.68,3.21 -10.24,2.06 -13.28,4.78 -14.3,15.82z"/>
  <path class="fil2" d="M705.51 376.21c-0.07,0.08 -0.16,0.1 -0.2,0.25 -0.03,0.13 -0.14,0.17 -0.18,0.24l-1.75 3.79c-0.63,1.61 -1.11,3.22 -1.6,4.97 -0.9,3.31 -1.57,7.08 -2.13,10.6 -3.64,23.4 -5.46,43.66 -37.65,36.26 -5.13,-1.17 -16.62,-4.47 -21.65,-3.73 -3.57,0.53 -22.63,4.39 -23.94,7.13 -3.8,8.01 8.42,17.94 15.63,27.2 3.51,4.49 7.74,11.02 11.56,14.32 14.69,12.69 58.2,-11.79 71.04,-21.36 5.07,-3.76 9.95,-7.75 13.59,-12.27 16.24,-20.18 -1.67,-66.14 -22.72,-67.4z"/>
  <path class="fil2" d="M170.9 187.11c-13.62,1.54 -23.4,6.89 -23.48,21.33 -0.07,11.39 7.51,23.22 14.99,30.08 3.66,3.35 8.13,6.8 12.76,9.85 16.13,10.59 17.15,-2.34 24.57,-13 3.73,-5.35 7.53,-6.7 16.4,-6 9.97,0.79 33.2,3.19 41.13,-0.96 4.54,-2.39 4.92,-8.16 1.34,-10.66 -1.05,-0.72 -2.34,-1.54 -3.5,-2.34 -4.34,-3.02 -9.32,-5.67 -14.13,-8.44 -16.04,-9.21 -47.12,-22.45 -70.08,-19.86z"/>
  <path class="fil2" d="M330.94 485c-0.69,-4.02 -2.19,-7.37 -3.95,-10.62 -1.77,-3.25 -4.47,-6.02 -4.05,-10.87 13.94,-4.52 24.23,0.61 37.94,6.49 10.92,4.68 23.86,10.17 37.46,10.54 3.28,0.09 13.26,-0.69 15.78,-1.99 1.45,-0.76 1.37,-3.5 1.2,-5.23 -0.55,-5.49 -5.16,-12.12 -8.56,-15.7 -1.03,-1.09 -2.03,-1.77 -3,-2.81 -1.45,-1.55 -1.74,-1.76 -3.2,-3 -2.27,-1.93 -4.17,-3.54 -6.71,-5.31 -9.36,-6.52 -21.28,-13.45 -33.32,-15.16 -5.78,-0.83 -17.12,-0.63 -22.57,0.9 -4.97,1.4 -7.79,3.64 -10.95,6.92 -1.09,1.13 -2.09,1.8 -3.15,3.03 -14.12,16.51 -21.72,12.72 -28.82,19.66 -1.99,1.94 -3.69,4.16 -4.92,7.09 -2.04,4.83 -1.6,4.61 1.41,7.74 9.34,9.69 23.1,9.37 39.41,8.32z"/>
  <path class="fil2" d="M385.35 423.87c1.46,11.79 11.08,14.59 19.34,21.63 33.21,28.32 12.68,43.12 40.3,42.74 12.79,-0.18 24.97,-2.38 32.09,-9.41 8.72,-8.6 5.62,-20.86 -1.11,-29.2 -2.15,-2.65 -8.79,-5.86 -12.95,-7.82 -4.66,-2.2 -9.54,-4.62 -13.34,-7.41 -4.01,-2.96 -6.93,-6.46 -11.47,-9.3 -4.42,-2.76 -10.47,-3.75 -16.53,-4.18 -11.92,-0.85 -27.55,-3.68 -36.33,2.95z"/>
  <path class="fil2" d="M567.11 434.05c-9.45,1.61 -16.97,7.85 -26.8,9.98 -11.16,2.4 -23.17,0 -34.24,-1.12 -18.21,-1.84 -19.98,5.51 -18.12,22.41 0.24,2.18 0.04,2.05 1.8,2.97 5.31,2.77 15.6,5.82 18.5,9.42 -3.03,4.94 -14.06,3.97 -17.18,9.11 2.54,3.02 4.68,5.4 9.86,7.09 4.83,1.56 10.59,1.83 15.87,0.97 10.04,-1.64 17.77,-6.65 21.96,-12.67 13.26,-19.03 6.12,-28.27 31.87,-37.72 31.93,-11.73 36.14,6.96 39.25,-8.08 1.07,-5.17 -1.43,-10.25 -3.79,-13.41 -4.53,-6.06 -13.11,-11.09 -24.45,-9.39 -11.92,1.77 -13.11,8.38 -14.53,20.44z"/>
  <path class="fil2" d="M266.11 364.96c-5.09,0.25 -10.16,0.74 -14.65,2.29 -1.34,0.45 -4.98,1.96 -5.6,2.77 -0.95,1.24 -1.69,8.86 2.9,12.8 5.46,4.68 5.45,10.35 7.99,17.15 6,16.08 16.86,28.81 37.75,29.62 10.8,0.42 16.08,-6.14 18.46,-15.06 2.3,-8.62 2.38,-21.53 1.18,-30.78 -1.36,-10.54 -5.46,-16.06 -15.55,-17.95 -7.33,-1.38 -24.52,-1.22 -32.48,-0.84z"/>
  <path class="fil2" d="M519.27 172.23c-4.69,1.2 -10.32,3.48 -15.03,5.11 -10.84,3.77 -19.8,7.63 -31.48,8.62 -7.62,0.64 -16.65,1.85 -21.06,8.82 -1.23,1.95 0.36,6.34 1.61,7.54 5.58,5.31 24.98,5.74 33.77,3.79 5.56,-1.23 9.92,-3.23 15.57,-4.5 15,-3.38 46.78,2.2 65.89,-4.05 3.75,-1.23 5.63,-1.55 6.36,-3.84 6.94,-21.59 -21.14,-21.27 -36.27,-21.37 -2.98,-0.02 -17.9,-0.49 -19.36,-0.12z"/>
  <path class="fil1" d="M566.74 633.66c0.35,14.21 -19.01,16.83 -29.93,16.57 -7.64,-0.17 -14.82,-0.57 -22.59,-0.59 -15.09,-0.04 -19.22,-2.72 -13.05,-16.29 1.05,-2.31 0.85,-1.88 3.31,-2.49 8.73,-2.18 14.46,-3.78 24.18,-4.63 10.54,-0.91 20.61,0.18 30.26,3.89 2.94,1.13 5.23,2.51 7.82,3.54zm-3.34 -18.32c-13.29,0.02 -27.18,-0.03 -39.32,3.4 -11.98,3.4 -56.27,17.05 -45.75,36.22 5.25,9.56 24.02,4.93 35.52,5.11 26.21,0.4 28.05,14.58 49.32,-2.98l22.65 -19.61c8.45,-5.61 11.47,-2.61 10.7,-10.4 -0.67,-6.71 -3.54,-9.97 -9.99,-11.09 -5.84,-1.02 -16.59,-0.68 -23.13,-0.65z"/>
  <path class="fil2" d="M221.72 453.57c10.91,3.2 20.58,5.18 32.69,6.33 14.26,1.35 21.26,0.2 32.78,-5.19 4.06,-1.91 9.18,-5 11.49,-7.81 4.66,-5.67 1.41,-9.17 -5,-10.63 -12.92,-2.94 -28.53,-0.02 -38.06,-1.3 1.58,-6.35 7.49,-4.1 9.82,-11.55 -1.1,-1.64 -2.07,-2.21 -3.34,-3.66 -1.22,-1.39 -2.2,-2.47 -3.46,-3.84l-7.13 -7.06c-10.3,-8.13 -22.32,-6.92 -27.1,5.68 -3.58,9.45 -4.63,29.96 -2.69,39.03z"/>
  <path class="fil2" d="M673.53 378.49c-14.56,2.93 -45.84,11.48 -57.05,16.43 -6.58,2.9 -16.92,8.14 -13.29,18.19 5.05,14.02 23.62,16.61 36.91,9.78 10.35,-6.35 28.79,6.85 44.81,-1.09 5.08,-3.06 30.6,-59.4 -11.38,-43.31z"/>
  <path class="fil2" d="M417.66 584.83c-2.13,-1.06 -6.46,-1.88 -8.51,-0.49 -3.02,2.05 -3.91,1.98 -8.31,2.02 0.16,-13.2 3.73,-15.57 0.44,-27.87 -7.46,-0.06 -16.42,0.9 -24.02,1.37 -2.73,0.16 -9.79,0.21 -12.02,0.7 -1.57,0.34 -1.72,2.87 -1.17,4.26 0.61,1.54 2.34,1.95 3.69,2.85 5.24,3.52 1.09,14.48 -1.44,19.01 -2.85,5.12 -5.05,7.99 -2.92,14.51 0.84,2.6 0.83,2.41 3.09,3.47 9.01,4.21 7.83,1.43 17.4,8.1 12.28,8.56 23.62,11.16 31.53,-6.13 2.41,-5.27 4.67,-15.6 2.24,-21.8z"/>
  <path class="fil2" d="M366.37 647.5c3.81,4.86 18.07,7.48 26.05,8.48 4.14,0.52 12.1,1.54 15.48,-0.4 9.6,-5.51 27.52,-43.12 32.34,-54.37 8.92,-20.81 11.77,-32.7 3.65,-56.09 -3.95,-11.37 -31.19,-48.56 -43.47,-42.04 -4.71,2.5 2.54,8.61 4.38,9.71 3.48,2.12 6.03,1.98 11.19,5.94 3.42,2.62 6.41,5.27 8.98,8.52 21.01,26.54 18.09,63.36 -1.55,90.29 -1.31,1.79 -2.68,3.24 -3.97,4.79 -3.43,4.12 -9.33,9.29 -15.01,10.85 -9.8,2.69 -19.88,-1.48 -29.76,5.22 -2.56,1.73 -7.48,5.67 -8.31,9.1z"/>
  <path class="fil2" d="M627.17 739.34c-6.36,-1.11 -9.72,-1.68 -16.64,-1.36 -5.99,0.28 -11.58,0.67 -17.5,-0.26 -9.89,-1.55 -18.98,-8.55 -28.91,-7.86 -4.25,0.3 -10.8,2.22 -14.94,3.27 -4.8,1.21 -9.49,2.57 -14.12,4.07 -5.06,1.63 -27.54,8.88 -16.79,14.08 14.43,6.98 43.07,-5.41 64.49,5.1 10.84,5.32 11.5,10.27 24.7,0.03 6.55,-5.08 18.81,-10.42 19.71,-17.07z"/>
  <path class="fil3" d="M364.49 744.78c-1.15,-6.67 -14.8,-8.03 -22.33,-9.04 -9.19,-1.23 -18.44,-2.35 -27.16,-4.51 -11.41,-2.82 -47.08,-14.59 -47.3,4.08 -0.24,21.6 79.13,26.93 96.79,9.47z"/>
  <path class="fil2" d="M670.81 336.04c-1.67,1.1 -7.59,3.25 -9.9,4.17l-30.21 12.41c-6.96,3.12 -12.47,7.11 -17.09,11.33 -21.08,19.24 27.89,16.04 52.41,5.05 28.08,-12.59 7.05,-31.97 4.79,-32.96z"/>
  <path class="fil2" d="M174.1 749.69c2.73,1.53 5.02,3.69 8.86,5.33 10.84,4.66 23.5,6.36 35.28,8.12 13.24,1.97 23.48,0.74 32.77,-8.3 1.37,-1.34 5.72,-6.15 6.66,-7.87 -3.42,-2.64 -39.01,-9.85 -46.33,-11.24 -9.93,-1.88 -13.11,-5.46 -23.52,-1.46 -8.09,3.12 -14.06,4.67 -13.72,15.42z"/>
  <path class="fil2" d="M458.56 403.27c-5.74,0.69 -4.64,0.93 -7.98,2.43 -0.96,0.42 -1.93,0.5 -2.69,0.94 -2.99,1.69 -0.04,8.32 1.47,9.85 3.02,3.07 12.82,8.01 17.87,10.54 9.5,4.76 11.58,4.1 22.56,5.88 8.14,1.33 16.37,2.55 24.51,3.88 9.13,1.5 16.45,-1.21 6.48,-11.19 -5.81,-5.82 -9.54,-7.94 -15.93,-12.49 -6.39,-4.55 -11.44,-6.11 -20.48,-7.9 -7.58,-1.5 -17.95,-2.89 -25.81,-1.94z"/>
  <path class="fil2" d="M566.74 633.66c-2.59,-1.03 -4.88,-2.41 -7.82,-3.54 -9.65,-3.71 -19.72,-4.8 -30.26,-3.89 -9.72,0.85 -15.45,2.45 -24.18,4.63 -2.46,0.61 -2.26,0.18 -3.31,2.49 -6.17,13.57 -2.04,16.25 13.05,16.29 7.77,0.02 14.95,0.42 22.59,0.59 10.92,0.26 30.28,-2.36 29.93,-16.57z"/>
  <path class="fil2" d="M184.31 626.2c2.52,1.97 9.75,4.75 13.41,5.86 25.31,7.71 31.56,-12.8 24.05,-26.23 -10.3,-18.43 -30.15,-6.07 -35.87,3.37 -2.82,4.64 -2.17,11.17 -1.59,17z"/>
  <path class="fil2" d="M423.38 559.26c3.29,-24.33 -24.72,-51.5 -41.23,-35.81 -4.3,4.09 -7.02,9.13 -3.36,14.99 1.8,2.86 3.87,2.99 7.91,3.11 11.68,0.34 16.79,1.9 22.3,10.4 3.14,4.86 9.24,7.59 14.38,7.31z"/>
  <path class="fil2" d="M159.39 313.45c-3.89,11.85 -0.19,26.92 3.82,37.6 2.06,5.49 4.78,9.95 6.99,15.24 0.89,2.15 2.25,6.16 3.61,7.31 1.45,1.22 7.93,0.95 9.39,0.08 1.47,-0.88 2.09,-6.81 2.1,-8.92 0.01,-3.53 -0.75,-6.51 -1.8,-9.6 -1.93,-5.68 -4.29,-10.33 -5.82,-16.38 -2.71,-10.7 -5.25,-27.93 -18.29,-25.33z"/>
  <path class="fil2" d="M214.02 442.73l0.41 -27.05c-12.49,-1.78 -17.16,0.24 -26.04,-6.74 -10.2,-8.03 -17.53,-4.3 -9.65,8.18 1.92,3.03 5.27,7.18 7.35,9.05 5,4.52 9.07,15.43 14.68,18.1 3.83,1.83 10.07,0.7 13.25,-1.54z"/>
  <path class="fil2" d="M593.67 457.87c-5.61,1.26 -8.12,3.46 -10.03,8.31 -1.84,4.68 -2.58,10.41 -1.54,15.82 4.65,24.13 32.95,10.13 34,6.7 4.2,-13.7 -4.1,-34.96 -22.43,-30.83z"/>
  <path class="fil2" d="M523.2 417.04c4.45,2.7 6.62,4.31 13.48,5.42 5.38,0.88 12.14,0.85 17.53,-0.25 8.75,-1.8 17.45,-9.92 18.57,-19.1 -8.94,-0.63 -21.4,-0.12 -30,1.53 -6.82,1.31 -17.78,4.96 -19.58,12.4z"/>
  <path class="fil2" d="M169.79 612.89c1.44,-0.01 5.8,-0.02 6.99,-0.36 1.54,-0.44 2.47,-3.03 3.17,-4.55 4.99,-10.97 3.1,-27.49 -7.86,-31.96 -1.54,0.76 -3.08,2.81 -4.51,3.11 -1.24,0.25 -4.79,-0.13 -6.82,0.19 -2.02,0.32 -1.92,1.38 -1.68,5.87 0.76,14.33 7.27,9.17 10.71,27.7z"/>
  <path class="fil1" d="M529.67 706.68c0.77,-9.47 -4.19,-13.49 -10.29,-16.61 -24.22,-12.37 -28.53,7.52 -13.12,14.94 6.42,3.1 15.92,3.38 23.41,1.67z"/>
  <path class="fil1" d="M451.02 733.36l8.68 0.16 -0.25 -5.34c0.31,-7.11 -5.77,-10.27 -10.87,-12.85 -13.61,-6.89 -24.69,-1.37 -21.28,6.69 3.05,7.24 16.9,11.81 23.72,11.34z"/>
  <path class="fil1" d="M402.48 775.63c15.21,7.98 10.04,10.65 31.31,10.32 -0.2,-4.23 0.12,-8.1 -2.1,-11.1 -0.76,-1.03 -5.36,-6.64 -6.1,-7.03 -3.97,-2.1 -17.69,-3.7 -22.75,-2.87l-0.36 10.68z"/>
  <path class="fil1" d="M660.43 683.32c-0.45,9.88 1.66,11.6 8.96,14.86 2.72,1.22 6.28,2.31 9.77,2.06 2.43,-0.18 7.87,-1.54 9.08,-2.98 2.11,-2.53 -0.76,-6.36 -2.03,-8.24 -6.13,-9.06 -15.86,-9.25 -25.78,-5.7z"/>
  <path class="fil1" d="M566.4 258.99c-4.05,0.8 -8.73,3.98 -9.01,7.13 -0.6,6.69 21.97,6.25 19.69,-2.47 -0.54,-2.1 -1.98,-3.53 -3.88,-4.15 -2.26,-0.74 -4.41,-0.98 -6.8,-0.51z"/>
  <path class="fil1" d="M451.02 733.36c1.14,1.05 6.92,0.57 8.71,0.29 0.42,-1.01 0.71,-4.87 -0.28,-5.47l0.25 5.34 -8.68 -0.16z"/>
  <path class="fil1" d="M552.14 324.1c9.35,5.47 16.68,3.35 24.12,0.45 2.77,-1.08 7.85,-1.85 10.12,-4.51 1.59,-1.84 4.43,-6.67 4.26,-8.55 -0.31,-3.28 -5.79,0.1 -8.02,-0.32 -13.33,6.43 -23.86,5.56 -30.48,12.93z"/>
 </g>
</svg>
